<?xml version="1.0" encoding="UTF-8"?>
<svg width="151px" height="384px" viewBox="0 0 151 384" version="1.1" xmlns="http://www.w3.org/2000/svg" xmlns:xlink="http://www.w3.org/1999/xlink">
    <!-- Generator: Sketch 51 (57462) - http://www.bohemiancoding.com/sketch -->
    <title>ABOUT CPB</title>
    <desc>Created with Sketch.</desc>
    <defs>
        <path d="M52.7,61 L46.41,46.55 L15.045,46.55 L8.84,61 L0.255,61 L26.69,1.5 L35.19,1.5 L61.54,61 L52.7,61 Z M18.275,39.155 L43.265,39.155 L30.685,10.255 L18.275,39.155 Z M95.625,1.5 C101.688364,1.5 106.462483,2.81748683 109.9475,5.4525 C113.432517,8.08751318 115.175,11.7283101 115.175,16.375 C115.175,19.775017 114.211676,22.6508216 112.285,25.0025 C110.358324,27.3541784 107.72335,28.9266627 104.38,29.72 C108.516687,30.3433365 111.760822,32.0008199 114.1125,34.6925 C116.464178,37.3841801 117.64,40.7416466 117.64,44.765 C117.64,49.8650255 115.727519,53.845819 111.9025,56.7075 C108.077481,59.569181 102.793367,61 96.05,61 L70.21,61 L70.21,1.5 L95.625,1.5 Z M95.2,26.745 C98.8833518,26.745 101.730823,25.9658411 103.7425,24.4075 C105.754177,22.8491589 106.76,20.6250145 106.76,17.735 C106.76,14.9016525 105.754177,12.7200077 103.7425,11.19 C101.730823,9.65999235 98.8833518,8.92333305 95.2,8.98 L78.37,8.98 L78.37,26.745 L95.2,26.745 Z M95.2,53.52 C99.6200221,53.576667 103.076654,52.740842 105.57,51.0125 C108.063346,49.284158 109.31,46.8616823 109.31,43.745 C109.31,40.7416517 108.063346,38.3900085 105.57,36.69 C103.076654,34.9899915 99.6200221,34.14 95.2,34.14 L78.37,34.14 L78.37,53.52 L95.2,53.52 Z M156.74,0.99 C162.463362,0.99 167.719143,2.32165335 172.5075,4.985 C177.295857,7.64834665 181.078319,11.2891436 183.855,15.9075 C186.631681,20.5258564 188.02,25.6116389 188.02,31.165 C188.02,36.7183611 186.631681,41.8324766 183.855,46.5075 C181.078319,51.1825234 177.295857,54.8658199 172.5075,57.5575 C167.719143,60.2491801 162.463362,61.595 156.74,61.595 C151.016638,61.595 145.760857,60.2491801 140.9725,57.5575 C136.184143,54.8658199 132.401681,51.1825234 129.625,46.5075 C126.848319,41.8324766 125.46,36.7183611 125.46,31.165 C125.46,25.6116389 126.848319,20.5258564 129.625,15.9075 C132.401681,11.2891436 136.169976,7.64834665 140.93,4.985 C145.690024,2.32165335 150.959971,0.99 156.74,0.99 Z M156.825,8.3 C152.688313,8.3 148.849184,9.3199898 145.3075,11.36 C141.765816,13.4000102 138.946677,16.1624826 136.85,19.6475 C134.753323,23.1325174 133.705,26.9716457 133.705,31.165 C133.705,35.3583543 134.753323,39.2116491 136.85,42.725 C138.946677,46.2383509 141.765816,49.0291563 145.3075,51.0975 C148.849184,53.1658437 152.688313,54.2 156.825,54.2 C160.961687,54.2 164.772483,53.1658437 168.2575,51.0975 C171.742517,49.0291563 174.519156,46.2383509 176.5875,42.725 C178.655844,39.2116491 179.69,35.3583543 179.69,31.165 C179.69,26.9716457 178.655844,23.1325174 176.5875,19.6475 C174.519156,16.1624826 171.742517,13.4000102 168.2575,11.36 C164.772483,9.3199898 160.961687,8.3 156.825,8.3 Z M206.635,36.69 C206.635,42.1866942 208.150818,46.4791512 211.1825,49.5675 C214.214182,52.6558488 218.393307,54.2 223.72,54.2 C228.990026,54.2 233.126652,52.6558488 236.13,49.5675 C239.133348,46.4791512 240.635,42.1866942 240.635,36.69 L240.635,1.5 L248.795,1.5 L248.795,36.69 C248.795,44.4533722 246.570856,50.5449779 242.1225,54.965 C237.674144,59.3850221 231.540039,61.595 223.72,61.595 C215.843294,61.595 209.666689,59.3850221 205.19,54.965 C200.713311,50.5449779 198.475,44.4533722 198.475,36.69 L198.475,1.5 L206.635,1.5 L206.635,36.69 Z M256.87,1.5 L303.365,1.5 L303.365,8.98 L284.155,8.98 L284.155,61 L275.995,61 L275.995,8.98 L256.87,8.98 L256.87,1.5 Z" id="path-1"></path>
        <path d="M48.595,15.78 C46.328322,13.3999881 43.6933484,11.5441733 40.69,10.2125 C37.6866517,8.88082668 34.5983492,8.215 31.425,8.215 C27.2316457,8.215 23.3783509,9.2349898 19.865,11.275 C16.3516491,13.3150102 13.5750102,16.0774826 11.535,19.5625 C9.4949898,23.0475174 8.475,26.8866457 8.475,31.08 C8.475,35.2166874 9.4949898,39.0416491 11.535,42.555 C13.5750102,46.0683509 16.3516491,48.8449898 19.865,50.885 C23.3783509,52.9250102 27.2316457,53.945 31.425,53.945 C34.5416823,53.945 37.6016517,53.3075064 40.605,52.0325 C43.6083484,50.7574936 46.2716551,49.0150111 48.595,46.805 L53.525,52.16 C50.5216517,55.1066814 47.0366865,57.415825 43.07,59.0875 C39.1033135,60.759175 35.0800204,61.595 31,61.595 C25.333305,61.595 20.1483569,60.2491801 15.445,57.5575 C10.7416432,54.8658199 7.0300136,51.1966899 4.31,46.55 C1.5899864,41.9033101 0.23,36.7750281 0.23,31.165 C0.23,25.6116389 1.60415293,20.5258564 4.3525,15.9075 C7.10084708,11.2891436 10.8549762,7.64834665 15.615,4.985 C20.3750238,2.32165335 25.6166381,0.99 31.34,0.99 C35.4766874,0.99 39.4858139,1.76915888 43.3675,3.3275 C47.2491861,4.88584113 50.6066525,7.0816525 53.44,9.915 L48.595,15.78 Z M87.865,1.5 C95.2883705,1.5 101.025813,3.2566491 105.0775,6.77 C109.129187,10.2833509 111.155,15.2133016 111.155,21.56 C111.155,28.1900332 109.11502,33.3324817 105.035,36.9875 C100.95498,40.6425183 95.2317035,42.47 87.865,42.47 L73.075,42.47 L73.075,61 L64.915,61 L64.915,1.5 L87.865,1.5 Z M87.525,35.075 C92.6250255,35.075 96.5349864,33.9558445 99.255,31.7175 C101.975014,29.4791555 103.335,26.1783552 103.335,21.815 C103.335,17.5649788 101.975014,14.3491776 99.255,12.1675 C96.5349864,9.98582243 92.6250255,8.895 87.525,8.895 L73.075,8.98 L73.075,35.075 L87.525,35.075 Z M147.365,1.5 C153.428364,1.5 158.202483,2.81748683 161.6875,5.4525 C165.172517,8.08751318 166.915,11.7283101 166.915,16.375 C166.915,19.775017 165.951676,22.6508216 164.025,25.0025 C162.098324,27.3541784 159.46335,28.9266627 156.12,29.72 C160.256687,30.3433365 163.500822,32.0008199 165.8525,34.6925 C168.204178,37.3841801 169.38,40.7416466 169.38,44.765 C169.38,49.8650255 167.467519,53.845819 163.6425,56.7075 C159.817481,59.569181 154.533367,61 147.79,61 L121.95,61 L121.95,1.5 L147.365,1.5 Z M146.94,26.745 C150.623352,26.745 153.470823,25.9658411 155.4825,24.4075 C157.494177,22.8491589 158.5,20.6250145 158.5,17.735 C158.5,14.9016525 157.494177,12.7200077 155.4825,11.19 C153.470823,9.65999235 150.623352,8.92333305 146.94,8.98 L130.11,8.98 L130.11,26.745 L146.94,26.745 Z M146.94,53.52 C151.360022,53.576667 154.816654,52.740842 157.31,51.0125 C159.803346,49.284158 161.05,46.8616823 161.05,43.745 C161.05,40.7416517 159.803346,38.3900085 157.31,36.69 C154.816654,34.9899915 151.360022,34.14 146.94,34.14 L130.11,34.14 L130.11,53.52 L146.94,53.52 Z" id="path-2"></path>
    </defs>
    <g id="Page-1" stroke="none" stroke-width="1" fill="none" fill-rule="evenodd">
        <g id="ABOUT-CPB" transform="translate(-1.000000, -1.000000)" fill="#000000">
            <g id="About" transform="translate(31.500000, 232.500000) rotate(-90.000000) translate(-31.500000, -232.500000) translate(-120.500000, 201.500000)">
                <g id="ABOUT">
                    <use xlink:href="#path-1"></use>
                    <use xlink:href="#path-1"></use>
                </g>
            </g>
            <g id="CPB" transform="translate(120.500000, 85.500000) rotate(-90.000000) translate(-120.500000, -85.500000) translate(35.500000, 54.500000)">
                <g>
                    <use xlink:href="#path-2"></use>
                    <use xlink:href="#path-2"></use>
                </g>
            </g>
            <rect id="Rectangle-14" fill-rule="nonzero" transform="translate(111.000000, 287.000000) rotate(90.000000) translate(-111.000000, -287.000000) " x="24" y="285" width="174" height="4"></rect>
        </g>
    </g>
</svg>