<?xml version="1.0" encoding="UTF-8"?>
<svg width="63px" height="22px" viewBox="0 0 63 22" version="1.1" xmlns="http://www.w3.org/2000/svg" xmlns:xlink="http://www.w3.org/1999/xlink">
<title>Arrow Right</title>
<g>
<path d="M53.4003772,21.1886004 L62.4271886,12.361324 C62.7935089,12.0031011 63,11.5123614 63,11 L63,11 C63,10.4876386 62.7935089,9.99689889 62.4271886,9.63867602 L53.4003772,0.811399617 C52.9375527,0.358805769 52.1993522,0.354284121 51.7310182,0.80117441 L51.7310182,0.80117441 C51.2788304,1.23265775 51.2620462,1.94901471 51.6935295,2.40120247 C51.7000807,2.40806801 51.706718,2.41485088 51.7134398,2.42154947 L59.1844909,9.86679716 L1.13320284,9.86679716 C0.507352194,9.86679716 -7.66445994e-17,10.3741494 0,11 L0,11 C7.66445994e-17,11.6258506 0.507352194,12.1332028 1.13320284,12.1332028 L59.1844909,12.1332028 L51.7134398,19.5784505 C51.2707191,20.0196421 51.2694796,20.7361946 51.7106712,21.1789153 C51.7173698,21.1856371 51.7241526,21.1922744 51.7310182,21.1988256 L51.7310182,21.1988256 C52.1993522,21.6457159 52.9375527,21.6411942 53.4003772,21.1886004 Z" id="Shape"></path>
</g>
</svg>