<?xml version="1.0" encoding="UTF-8"?>
<svg width="62px" height="221px" viewBox="0 0 62 221" version="1.1" xmlns="http://www.w3.org/2000/svg" xmlns:xlink="http://www.w3.org/1999/xlink">
    <!-- Generator: Sketch 51 (57462) - http://www.bohemiancoding.com/sketch -->
    <title>BLOG</title>
    <desc>Created with Sketch.</desc>
    <defs>
        <path d="M25.915,1.5 C31.9783636,1.5 36.7524826,2.81748683 40.2375,5.4525 C43.7225174,8.08751317 45.465,11.7283101 45.465,16.375 C45.465,19.775017 44.5016763,22.6508216 42.575,25.0025 C40.6483237,27.3541784 38.01335,28.9266627 34.67,29.72 C38.8066873,30.3433365 42.0508216,32.0008199 44.4025,34.6925 C46.7541784,37.3841801 47.93,40.7416466 47.93,44.765 C47.93,49.8650255 46.0175191,53.845819 42.1925,56.7075 C38.3674809,59.569181 33.083367,61 26.34,61 L0.5,61 L0.5,1.5 L25.915,1.5 Z M25.49,26.745 C29.1733517,26.745 32.0208233,25.9658411 34.0325,24.4075 C36.0441767,22.8491589 37.05,20.6250145 37.05,17.735 C37.05,14.9016525 36.0441767,12.7200077 34.0325,11.19 C32.0208233,9.65999235 29.1733517,8.92333305 25.49,8.98 L8.66,8.98 L8.66,26.745 L25.49,26.745 Z M25.49,53.52 C29.9100221,53.576667 33.3666542,52.740842 35.86,51.0125 C38.3533458,49.284158 39.6,46.8616823 39.6,43.745 C39.6,40.7416517 38.3533458,38.3900085 35.86,36.69 C33.3666542,34.9899915 29.9100221,34.14 25.49,34.14 L8.66,34.14 L8.66,53.52 L25.49,53.52 Z M61.02,1.5 L69.18,1.5 L69.18,53.605 L95.19,53.605 L95.19,61 L61.02,61 L61.02,1.5 Z M131.57,0.99 C137.293362,0.99 142.549143,2.32165335 147.3375,4.985 C152.125857,7.64834665 155.908319,11.2891436 158.685,15.9075 C161.461681,20.5258564 162.85,25.6116389 162.85,31.165 C162.85,36.7183611 161.461681,41.8324766 158.685,46.5075 C155.908319,51.1825234 152.125857,54.8658199 147.3375,57.5575 C142.549143,60.2491801 137.293362,61.595 131.57,61.595 C125.846638,61.595 120.590857,60.2491801 115.8025,57.5575 C111.014143,54.8658199 107.231681,51.1825234 104.455,46.5075 C101.678319,41.8324766 100.29,36.7183611 100.29,31.165 C100.29,25.6116389 101.678319,20.5258564 104.455,15.9075 C107.231681,11.2891436 110.999976,7.64834665 115.76,4.985 C120.520024,2.32165335 125.789971,0.99 131.57,0.99 Z M131.655,8.3 C127.518313,8.3 123.679184,9.3199898 120.1375,11.36 C116.595816,13.4000102 113.776677,16.1624826 111.68,19.6475 C109.583323,23.1325174 108.535,26.9716457 108.535,31.165 C108.535,35.3583543 109.583323,39.2116491 111.68,42.725 C113.776677,46.2383509 116.595816,49.0291563 120.1375,51.0975 C123.679184,53.1658437 127.518313,54.2 131.655,54.2 C135.791687,54.2 139.602483,53.1658437 143.0875,51.0975 C146.572517,49.0291563 149.349156,46.2383509 151.4175,42.725 C153.485844,39.2116491 154.52,35.3583543 154.52,31.165 C154.52,26.9716457 153.485844,23.1325174 151.4175,19.6475 C149.349156,16.1624826 146.572517,13.4000102 143.0875,11.36 C139.602483,9.3199898 135.791687,8.3 131.655,8.3 Z M213.85,31.93 L221.075,31.93 L221.075,53.775 C218.071652,56.1550119 214.558353,58.0533263 210.535,59.47 C206.511647,60.8866738 202.516686,61.595 198.55,61.595 C192.826638,61.595 187.585024,60.2491801 182.825,57.5575 C178.064976,54.8658199 174.310847,51.1825234 171.5625,46.5075 C168.814153,41.8324766 167.44,36.7183611 167.44,31.165 C167.44,25.6116389 168.828319,20.5258564 171.605,15.9075 C174.381681,11.2891436 178.178309,7.64834665 182.995,4.985 C187.811691,2.32165335 193.138304,0.99 198.975,0.99 C203.111687,0.99 207.149147,1.7266593 211.0875,3.2 C215.025853,4.6733407 218.439986,6.68498725 221.33,9.235 L216.655,15.185 C214.274988,12.974989 211.540849,11.2608394 208.4525,10.0425 C205.364151,8.82416058 202.205016,8.215 198.975,8.215 C194.724979,8.215 190.815018,9.2349898 187.245,11.275 C183.674982,13.3150102 180.855844,16.0916491 178.7875,19.605 C176.719156,23.1183509 175.685,26.9716457 175.685,31.165 C175.685,35.3583543 176.733323,39.2258156 178.83,42.7675 C180.926677,46.3091844 183.759982,49.1141563 187.33,51.1825 C190.900018,53.2508437 194.809979,54.285 199.06,54.285 C201.553346,54.285 204.089154,53.8741708 206.6675,53.0525 C209.245846,52.2308292 211.639989,51.0833407 213.85,49.61 L213.85,31.93 Z" id="path-1"></path>
    </defs>
    <g id="Page-1" stroke="none" stroke-width="1" fill="none" fill-rule="evenodd">
        <g id="BLOG" transform="translate(-1.000000, -1.000000)" fill="#000000">
            <g id="Sideways-Title;" transform="translate(31.500000, 111.500000) rotate(-90.000000) translate(-31.500000, -111.500000) translate(-79.500000, 80.500000)">
                <g id="BLOG">
                    <use xlink:href="#path-1"></use>
                    <use xlink:href="#path-1"></use>
                </g>
            </g>
        </g>
    </g>
</svg>