<?xml version="1.0" encoding="UTF-8"?>
<svg width="161px" height="419px" viewBox="0 0 161 419" version="1.1" xmlns="http://www.w3.org/2000/svg" xmlns:xlink="http://www.w3.org/1999/xlink">
    <!-- Generator: Sketch 51 (57462) - http://www.bohemiancoding.com/sketch -->
    <title>BODY _ FACE</title>
    <desc>Created with Sketch.</desc>
    <defs>
        <path d="M33.915,22.5 C39.9783637,22.5 44.7524826,23.8174868 48.2375,26.4525 C51.7225174,29.0875132 53.465,32.7283101 53.465,37.375 C53.465,40.775017 52.5016763,43.6508216 50.575,46.0025 C48.6483237,48.3541784 46.01335,49.9266627 42.67,50.72 C46.8066873,51.3433364 50.0508216,53.0008199 52.4025,55.6925 C54.7541784,58.3841801 55.93,61.7416465 55.93,65.765 C55.93,70.8650255 54.0175191,74.845819 50.1925,77.7075 C46.3674809,80.569181 41.0833671,82 34.34,82 L8.5,82 L8.5,22.5 L33.915,22.5 Z M33.49,47.745 C37.1733518,47.745 40.0208233,46.9658411 42.0325,45.4075 C44.0441767,43.8491589 45.05,41.6250144 45.05,38.735 C45.05,35.9016525 44.0441767,33.7200076 42.0325,32.19 C40.0208233,30.6599923 37.1733518,29.923333 33.49,29.98 L16.66,29.98 L16.66,47.745 L33.49,47.745 Z M33.49,74.52 C37.9100221,74.576667 41.3666542,73.740842 43.86,72.0125 C46.3533458,70.284158 47.6,67.8616823 47.6,64.745 C47.6,61.7416516 46.3533458,59.3900085 43.86,57.69 C41.3666542,55.9899915 37.9100221,55.14 33.49,55.14 L16.66,55.14 L16.66,74.52 L33.49,74.52 Z M95.03,21.99 C100.753362,21.99 106.009143,23.3216533 110.7975,25.985 C115.585857,28.6483466 119.368319,32.2891436 122.145,36.9075 C124.921681,41.5258564 126.31,46.6116389 126.31,52.165 C126.31,57.7183611 124.921681,62.8324766 122.145,67.5075 C119.368319,72.1825234 115.585857,75.8658199 110.7975,78.5575 C106.009143,81.2491801 100.753362,82.595 95.03,82.595 C89.3066381,82.595 84.0508573,81.2491801 79.2625,78.5575 C74.4741427,75.8658199 70.6916806,72.1825234 67.915,67.5075 C65.1383194,62.8324766 63.75,57.7183611 63.75,52.165 C63.75,46.6116389 65.1383194,41.5258564 67.915,36.9075 C70.6916806,32.2891436 74.4599762,28.6483466 79.22,25.985 C83.9800238,23.3216533 89.2499711,21.99 95.03,21.99 Z M95.115,29.3 C90.9783126,29.3 87.1391844,30.3199898 83.5975,32.36 C80.0558156,34.4000102 77.2366771,37.1624826 75.14,40.6475 C73.0433229,44.1325174 71.995,47.9716457 71.995,52.165 C71.995,56.3583543 73.0433229,60.2116491 75.14,63.725 C77.2366771,67.2383509 80.0558156,70.0291563 83.5975,72.0975 C87.1391844,74.1658437 90.9783126,75.2 95.115,75.2 C99.2516874,75.2 103.062483,74.1658437 106.5475,72.0975 C110.032517,70.0291563 112.809156,67.2383509 114.8775,63.725 C116.945844,60.2116491 117.98,56.3583543 117.98,52.165 C117.98,47.9716457 116.945844,44.1325174 114.8775,40.6475 C112.809156,37.1624826 110.032517,34.4000102 106.5475,32.36 C103.062483,30.3199898 99.2516874,29.3 95.115,29.3 Z M162.265,22.5 C168.045029,22.5 173.272477,23.7891538 177.9475,26.3675 C182.622523,28.9458462 186.291653,32.501644 188.955,37.035 C191.618347,41.568356 192.95,46.6399719 192.95,52.25 C192.95,57.860028 191.60418,62.931644 188.9125,67.465 C186.22082,71.998356 182.523357,75.5541538 177.82,78.1325 C173.116643,80.7108462 167.846696,82 162.01,82 L138.04,82 L138.04,22.5 L162.265,22.5 Z M162.435,74.605 C166.571687,74.605 170.325816,73.6416763 173.6975,71.715 C177.069184,69.7883237 179.73249,67.125017 181.6875,63.725 C183.64251,60.324983 184.62,56.5283543 184.62,52.335 C184.62,48.0849787 183.628343,44.260017 181.645,40.86 C179.661657,37.459983 176.95585,34.7825098 173.5275,32.8275 C170.09915,30.8724902 166.288354,29.895 162.095,29.895 L146.2,29.895 L146.2,74.605 L162.435,74.605 Z M249.05,22.5 L226.78,61.6 L226.78,82 L218.62,82 L218.62,61.94 L196.01,22.5 L204.34,22.5 L222.7,52.845 L240.72,22.5 L249.05,22.5 Z M322.49,83.275 L312.8,73.755 C310.136653,76.5316806 307.260849,78.6566593 304.1725,80.13 C301.084151,81.6033407 297.896683,82.34 294.61,82.34 C291.26665,82.34 288.206681,81.6316738 285.43,80.215 C282.653319,78.7983263 280.457508,76.8291793 278.8425,74.3075 C277.227492,71.7858207 276.42,68.9666822 276.42,65.85 C276.42,61.9966474 277.595822,58.8091793 279.9475,56.2875 C282.299178,53.7658207 285.543313,51.400011 289.68,49.19 C287.63999,46.5266534 286.138338,44.0758445 285.175,41.8375 C284.211662,39.5991555 283.73,37.4033441 283.73,35.25 C283.73,31.3966474 285.118319,28.2516788 287.895,25.815 C290.671681,23.3783212 294.269978,22.16 298.69,22.16 C302.940021,22.16 306.396653,23.293322 309.06,25.56 C311.723347,27.826678 313.055,30.7449821 313.055,34.315 C313.055,36.8650127 312.389173,39.1174902 311.0575,41.0725 C309.725827,43.0275098 308.054177,44.6991597 306.0425,46.0875 C304.030823,47.4758403 301.495015,48.9633254 298.435,50.55 C301.268348,53.8366831 305.829969,58.5966355 312.12,64.83 C314.386678,61.373316 316.284992,57.6333535 317.815,53.61 L323.085,57.52 C321.328325,61.7133543 319.175013,65.6233152 316.625,69.25 L326.655,79.025 L322.49,83.275 Z M290.19,35.165 C290.19,38.2816822 291.804984,42.0499779 295.035,46.47 C298.831686,44.4866568 301.70749,42.6166755 303.6625,40.86 C305.61751,39.1033245 306.595,36.9500127 306.595,34.4 C306.595,32.2466559 305.886674,30.5183398 304.47,29.215 C303.053326,27.9116601 301.155012,27.26 298.775,27.26 C296.16832,27.26 294.085841,28.0108258 292.5275,29.5125 C290.969159,31.0141742 290.19,32.898322 290.19,35.165 Z M294.865,76.22 C299.568357,76.22 304.101645,73.953356 308.465,69.42 C301.7783,62.7899668 296.650018,57.4350204 293.08,53.355 C289.906651,55.1116754 287.455842,56.9249906 285.7275,58.795 C283.999158,60.6650093 283.135,62.8466542 283.135,65.34 C283.135,68.5133492 284.268322,71.1199898 286.535,73.16 C288.801678,75.2000102 291.578317,76.22 294.865,76.22 Z" id="path-1"></path>
        <path d="M8.5,22.5 L47.26,22.5 L47.175,29.895 L16.66,29.895 L16.66,49.445 L44.115,49.445 L44.115,56.84 L16.66,56.84 L16.66,82 L8.5,82 L8.5,22.5 Z M98.77,82 L92.48,67.55 L61.115,67.55 L54.91,82 L46.325,82 L72.76,22.5 L81.26,22.5 L107.61,82 L98.77,82 Z M64.345,60.155 L89.335,60.155 L76.755,31.255 L64.345,60.155 Z M157.93,36.78 C155.663322,34.3999881 153.028348,32.5441733 150.025,31.2125 C147.021652,29.8808267 143.933349,29.215 140.76,29.215 C136.566646,29.215 132.713351,30.2349898 129.2,32.275 C125.686649,34.3150102 122.91001,37.0774826 120.87,40.5625 C118.82999,44.0475174 117.81,47.8866457 117.81,52.08 C117.81,56.2166874 118.82999,60.0416491 120.87,63.555 C122.91001,67.0683509 125.686649,69.8449898 129.2,71.885 C132.713351,73.9250102 136.566646,74.945 140.76,74.945 C143.876682,74.945 146.936652,74.3075064 149.94,73.0325 C152.943348,71.7574936 155.606655,70.015011 157.93,67.805 L162.86,73.16 C159.856652,76.1066814 156.371687,78.415825 152.405,80.0875 C148.438314,81.759175 144.41502,82.595 140.335,82.595 C134.668305,82.595 129.483357,81.2491801 124.78,78.5575 C120.076643,75.8658199 116.365014,72.1966899 113.645,67.55 C110.924986,62.9033101 109.565,57.7750281 109.565,52.165 C109.565,46.6116389 110.939153,41.5258564 113.6875,36.9075 C116.435847,32.2891436 120.189976,28.6483466 124.95,25.985 C129.710024,23.3216533 134.951638,21.99 140.675,21.99 C144.811687,21.99 148.820814,22.7691589 152.7025,24.3275 C156.584186,25.8858411 159.941653,28.0816525 162.775,30.915 L157.93,36.78 Z M174.25,22.5 L215.56,22.5 L215.56,29.895 L182.41,29.895 L182.41,48.255 L212.075,48.255 L212.075,55.65 L182.41,55.65 L182.41,74.605 L216.58,74.605 L216.58,82 L174.25,82 L174.25,22.5 Z" id="path-2"></path>
    </defs>
    <g id="Page-1" stroke="none" stroke-width="1" fill="none" fill-rule="evenodd">
        <g id="BODY-_-FACE" transform="translate(-22.000000, -5.000000)" fill="#000000">
            <g id="Body-&amp;" transform="translate(52.000000, 268.500000) rotate(-90.000000) translate(-52.000000, -268.500000) translate(-112.000000, 217.000000)">
                <g id="BODY-&amp;">
                    <use xlink:href="#path-1"></use>
                    <use xlink:href="#path-1"></use>
                </g>
            </g>
            <g id="FACE" transform="translate(151.500000, 111.000000) rotate(-90.000000) translate(-151.500000, -111.000000) translate(40.500000, 59.500000)">
                <g>
                    <use xlink:href="#path-2"></use>
                    <use xlink:href="#path-2"></use>
                </g>
            </g>
            <rect id="Rectangle-14" fill-rule="nonzero" transform="translate(137.000000, 335.000000) rotate(90.000000) translate(-137.000000, -335.000000) " x="50" y="333" width="174" height="4"></rect>
        </g>
    </g>
</svg>