<?xml version="1.0" encoding="UTF-8"?>
<svg width="433px" height="61px" viewBox="0 0 433 61" version="1.1" xmlns="http://www.w3.org/2000/svg" xmlns:xlink="http://www.w3.org/1999/xlink">
    <!-- Generator: Sketch 51 (57462) - http://www.bohemiancoding.com/sketch -->
    <title>TWO TONED CONTACT</title>
    <desc>Created with Sketch.</desc>
    <defs>
        <path d="M51.595,36.78 C49.328322,34.3999881 46.6933484,32.5441733 43.69,31.2125 C40.6866517,29.8808267 37.5983492,29.215 34.425,29.215 C30.2316457,29.215 26.3783509,30.2349898 22.865,32.275 C19.3516491,34.3150102 16.5750102,37.0774826 14.535,40.5625 C12.4949898,44.0475174 11.475,47.8866457 11.475,52.08 C11.475,56.2166874 12.4949898,60.0416491 14.535,63.555 C16.5750102,67.0683509 19.3516491,69.8449898 22.865,71.885 C26.3783509,73.9250102 30.2316457,74.945 34.425,74.945 C37.5416823,74.945 40.6016517,74.3075064 43.605,73.0325 C46.6083483,71.7574936 49.2716551,70.015011 51.595,67.805 L56.525,73.16 C53.5216517,76.1066814 50.0366865,78.415825 46.07,80.0875 C42.1033135,81.759175 38.0800204,82.595 34,82.595 C28.333305,82.595 23.1483569,81.2491801 18.445,78.5575 C13.7416432,75.8658199 10.0300136,72.1966899 7.31,67.55 C4.5899864,62.9033101 3.23,57.7750281 3.23,52.165 C3.23,46.6116389 4.60415293,41.5258564 7.3525,36.9075 C10.1008471,32.2891436 13.8549762,28.6483466 18.615,25.985 C23.3750238,23.3216534 28.616638,21.99 34.34,21.99 C38.4766874,21.99 42.4858139,22.7691589 46.3675,24.3275 C50.2491861,25.8858411 53.6066525,28.0816525 56.44,30.915 L51.595,36.78 Z M92.565,21.99 C98.288362,21.99 103.544143,23.3216534 108.3325,25.985 C113.120857,28.6483466 116.903319,32.2891436 119.68,36.9075 C122.456681,41.5258564 123.845,46.6116389 123.845,52.165 C123.845,57.7183611 122.456681,62.8324766 119.68,67.5075 C116.903319,72.1825234 113.120857,75.8658199 108.3325,78.5575 C103.544143,81.2491801 98.288362,82.595 92.565,82.595 C86.8416381,82.595 81.5858573,81.2491801 76.7975,78.5575 C72.0091427,75.8658199 68.2266806,72.1825234 65.45,67.5075 C62.6733195,62.8324766 61.285,57.7183611 61.285,52.165 C61.285,46.6116389 62.6733195,41.5258564 65.45,36.9075 C68.2266806,32.2891436 71.9949762,28.6483466 76.755,25.985 C81.5150238,23.3216534 86.7849711,21.99 92.565,21.99 Z M92.65,29.3 C88.5133127,29.3 84.6741844,30.3199898 81.1325,32.36 C77.5908156,34.4000102 74.7716772,37.1624826 72.675,40.6475 C70.5783229,44.1325174 69.53,47.9716457 69.53,52.165 C69.53,56.3583543 70.5783229,60.2116491 72.675,63.725 C74.7716772,67.2383509 77.5908156,70.0291563 81.1325,72.0975 C84.6741844,74.1658437 88.5133127,75.2 92.65,75.2 C96.7866874,75.2 100.597483,74.1658437 104.0825,72.0975 C107.567517,70.0291563 110.344156,67.2383509 112.4125,63.725 C114.480844,60.2116491 115.515,56.3583543 115.515,52.165 C115.515,47.9716457 114.480844,44.1325174 112.4125,40.6475 C110.344156,37.1624826 107.567517,34.4000102 104.0825,32.36 C100.597483,30.3199898 96.7866874,29.3 92.65,29.3 Z" id="path-1"></path>
        <polygon id="path-2" points="203.66 22.5 211.735 22.5 211.735 82 203.49 82 169.49 35.93 169.49 82 161.33 82 161.33 22.5 169.575 22.5 203.66 68.655"></polygon>
        <path d="M0.85,22.5 L47.345,22.5 L47.345,29.98 L28.135,29.98 L28.135,82 L19.975,82 L19.975,29.98 L0.85,29.98 L0.85,22.5 Z M95.2,82 L88.91,67.55 L57.545,67.55 L51.34,82 L42.755,82 L69.19,22.5 L77.69,22.5 L104.04,82 L95.2,82 Z M60.775,60.155 L85.765,60.155 L73.185,31.255 L60.775,60.155 Z M154.36,36.78 C152.093322,34.3999881 149.458348,32.5441733 146.455,31.2125 C143.451652,29.8808267 140.363349,29.215 137.19,29.215 C132.996646,29.215 129.143351,30.2349898 125.63,32.275 C122.116649,34.3150102 119.34001,37.0774826 117.3,40.5625 C115.25999,44.0475174 114.24,47.8866457 114.24,52.08 C114.24,56.2166874 115.25999,60.0416491 117.3,63.555 C119.34001,67.0683509 122.116649,69.8449898 125.63,71.885 C129.143351,73.9250102 132.996646,74.945 137.19,74.945 C140.306682,74.945 143.366652,74.3075064 146.37,73.0325 C149.373348,71.7574936 152.036655,70.015011 154.36,67.805 L159.29,73.16 C156.286652,76.1066814 152.801686,78.415825 148.835,80.0875 C144.868314,81.759175 140.84502,82.595 136.765,82.595 C131.098305,82.595 125.913357,81.2491801 121.21,78.5575 C116.506643,75.8658199 112.795014,72.1966899 110.075,67.55 C107.354986,62.9033101 105.995,57.7750281 105.995,52.165 C105.995,46.6116389 107.369153,41.5258564 110.1175,36.9075 C112.865847,32.2891436 116.619976,28.6483466 121.38,25.985 C126.140024,23.3216534 131.381638,21.99 137.105,21.99 C141.241687,21.99 145.250814,22.7691589 149.1325,24.3275 C153.014186,25.8858411 156.371653,28.0816525 159.205,30.915 L154.36,36.78 Z M163.03,22.5 L209.525,22.5 L209.525,29.98 L190.315,29.98 L190.315,82 L182.155,82 L182.155,29.98 L163.03,29.98 L163.03,22.5 Z" id="path-3"></path>
    </defs>
    <g id="Page-1" stroke="none" stroke-width="1" fill="none" fill-rule="evenodd">
        <g id="TWO-TONED-CONTACT" transform="translate(-3.000000, -22.000000)">
            <g id="con">
                <g id="CO">
                    <use fill="#000000" xlink:href="#path-1"></use>
                    <use fill="#FFFFFF" xlink:href="#path-1"></use>
                </g>
                <g id="N" fill="#000000">
                    <use xlink:href="#path-2"></use>
                    <use xlink:href="#path-2"></use>
                </g>
            </g>
            <g id="Tact" transform="translate(226.000000, 0.000000)" fill="#000000">
                <g id="TACT">
                    <use xlink:href="#path-3"></use>
                    <use xlink:href="#path-3"></use>
                </g>
            </g>
        </g>
    </g>
</svg>