<?xml version="1.0" encoding="UTF-8"?>
<svg width="153px" height="297px" viewBox="0 0 153 297" version="1.1" xmlns="http://www.w3.org/2000/svg" xmlns:xlink="http://www.w3.org/1999/xlink">
    <!-- Generator: Sketch 51 (57462) - http://www.bohemiancoding.com/sketch -->
    <title>EVENTS</title>
    <desc>Created with Sketch.</desc>
    <defs>
        <path d="M8.5,22.5 L49.81,22.5 L49.81,29.895 L16.66,29.895 L16.66,48.255 L46.325,48.255 L46.325,55.65 L16.66,55.65 L16.66,74.605 L50.83,74.605 L50.83,82 L8.5,82 L8.5,22.5 Z M55.93,22.5 L64.685,22.5 L84.32,72.905 L103.955,22.5 L112.54,22.5 L88.4,82 L79.9,82 L55.93,22.5 Z M121.465,22.5 L162.775,22.5 L162.775,29.895 L129.625,29.895 L129.625,48.255 L159.29,48.255 L159.29,55.65 L129.625,55.65 L129.625,74.605 L163.795,74.605 L163.795,82 L121.465,82 L121.465,22.5 Z" id="path-1"></path>
        <path d="M50.83,22.5 L58.905,22.5 L58.905,82 L50.66,82 L16.66,35.93 L16.66,82 L8.5,82 L8.5,22.5 L16.745,22.5 L50.83,68.655 L50.83,22.5 Z M68.34,22.5 L114.835,22.5 L114.835,29.98 L95.625,29.98 L95.625,82 L87.465,82 L87.465,29.98 L68.34,29.98 L68.34,22.5 Z M158.95,34.91 C156.173319,33.1533246 153.297515,31.8358377 150.3225,30.9575 C147.347485,30.0791623 144.613346,29.64 142.12,29.64 C138.663316,29.64 135.900844,30.3058267 133.8325,31.6375 C131.764156,32.9691733 130.73,34.7966551 130.73,37.12 C130.73,39.2166772 131.353327,40.9308267 132.6,42.2625 C133.846673,43.5941733 135.376658,44.6424962 137.19,45.4075 C139.003342,46.1725038 141.524984,47.0649949 144.755,48.085 C148.778353,49.3316729 152.036654,50.521661 154.53,51.655 C157.023346,52.788339 159.148325,54.4741555 160.905,56.7125 C162.661675,58.9508445 163.54,61.9116483 163.54,65.595 C163.54,68.995017 162.619176,71.9699873 160.7775,74.52 C158.935824,77.0700128 156.357517,79.0391597 153.0425,80.4275 C149.727483,81.8158403 145.916688,82.51 141.61,82.51 C137.246645,82.51 132.996687,81.6600085 128.86,79.96 C124.723313,78.2599915 121.153348,75.9933475 118.15,73.16 L121.805,66.105 C124.638347,68.8816806 127.825816,71.0208258 131.3675,72.5225 C134.909184,74.0241742 138.35165,74.775 141.695,74.775 C145.661686,74.775 148.792489,73.9958411 151.0875,72.4375 C153.382511,70.8791589 154.53,68.7683467 154.53,66.105 C154.53,64.0083229 153.906673,62.2800068 152.66,60.92 C151.413327,59.5599932 149.840843,58.4833373 147.9425,57.69 C146.044157,56.8966627 143.480016,56.0183382 140.25,55.055 C136.283313,53.8649941 133.053346,52.703339 130.56,51.57 C128.066654,50.436661 125.955842,48.7650111 124.2275,46.555 C122.499158,44.344989 121.635,41.4266848 121.635,37.8 C121.635,34.6266508 122.513325,31.8216789 124.27,29.385 C126.026675,26.9483212 128.491651,25.0783399 131.665,23.775 C134.838349,22.4716602 138.521646,21.82 142.715,21.82 C146.285018,21.82 149.78415,22.3441614 153.2125,23.3925 C156.64085,24.4408386 159.686653,25.8433246 162.35,27.6 L158.95,34.91 Z" id="path-2"></path>
    </defs>
    <g id="Page-1" stroke="none" stroke-width="1" fill="none" fill-rule="evenodd">
        <g id="EVENTS" transform="translate(-23.000000, -5.000000)" fill="#000000">
            <g id="Eve" transform="translate(52.000000, 226.000000) rotate(-90.000000) translate(-52.000000, -226.000000) translate(-32.500000, 174.500000)">
                <g id="EVE">
                    <use xlink:href="#path-1"></use>
                    <use xlink:href="#path-1"></use>
                </g>
            </g>
            <g id="nts" transform="translate(144.500000, 84.500000) rotate(-90.000000) translate(-144.500000, -84.500000) translate(60.000000, 33.000000)">
                <g id="NTS">
                    <use xlink:href="#path-2"></use>
                    <use xlink:href="#path-2"></use>
                </g>
            </g>
            <rect id="Rectangle-14" fill-rule="nonzero" transform="translate(148.000000, 247.500000) rotate(90.000000) translate(-148.000000, -247.500000) " x="95.5" y="245.5" width="105" height="4"></rect>
        </g>
    </g>
</svg>