<?xml version="1.0" encoding="UTF-8"?>
<svg width="162px" height="371px" viewBox="0 0 162 371" version="1.1" xmlns="http://www.w3.org/2000/svg" xmlns:xlink="http://www.w3.org/1999/xlink">
    <!-- Generator: Sketch 51 (57462) - http://www.bohemiancoding.com/sketch -->
    <title>OUR-TEAM</title>
    <desc>Created with Sketch.</desc>
    <defs>
        <path d="M31.51,0.99 C37.233362,0.99 42.4891427,2.32165335 47.2775,4.985 C52.0658573,7.64834665 55.8483195,11.2891436 58.625,15.9075 C61.4016806,20.5258564 62.79,25.6116389 62.79,31.165 C62.79,36.7183611 61.4016806,41.8324766 58.625,46.5075 C55.8483195,51.1825234 52.0658573,54.8658199 47.2775,57.5575 C42.4891427,60.2491801 37.233362,61.595 31.51,61.595 C25.7866381,61.595 20.5308573,60.2491801 15.7425,57.5575 C10.9541427,54.8658199 7.17168055,51.1825234 4.395,46.5075 C1.61831945,41.8324766 0.23,36.7183611 0.23,31.165 C0.23,25.6116389 1.61831945,20.5258564 4.395,15.9075 C7.17168055,11.2891436 10.9399762,7.64834665 15.7,4.985 C20.4600238,2.32165335 25.7299711,0.99 31.51,0.99 Z M31.595,8.3 C27.4583127,8.3 23.6191844,9.3199898 20.0775,11.36 C16.5358156,13.4000102 13.7166772,16.1624826 11.62,19.6475 C9.52332285,23.1325174 8.475,26.9716457 8.475,31.165 C8.475,35.3583543 9.52332285,39.2116491 11.62,42.725 C13.7166772,46.2383509 16.5358156,49.0291563 20.0775,51.0975 C23.6191844,53.1658437 27.4583127,54.2 31.595,54.2 C35.7316874,54.2 39.5424826,53.1658437 43.0275,51.0975 C46.5125174,49.0291563 49.2891563,46.2383509 51.3575,42.725 C53.4258437,39.2116491 54.46,35.3583543 54.46,31.165 C54.46,26.9716457 53.4258437,23.1325174 51.3575,19.6475 C49.2891563,16.1624826 46.5125174,13.4000102 43.0275,11.36 C39.5424826,9.3199898 35.7316874,8.3 31.595,8.3 Z M81.405,36.69 C81.405,42.1866942 82.9208182,46.4791512 85.9525,49.5675 C88.9841818,52.6558488 93.1633067,54.2 98.49,54.2 C103.760026,54.2 107.896652,52.6558488 110.9,49.5675 C113.903348,46.4791512 115.405,42.1866942 115.405,36.69 L115.405,1.5 L123.565,1.5 L123.565,36.69 C123.565,44.4533722 121.340856,50.5449779 116.8925,54.965 C112.444144,59.3850221 106.310039,61.595 98.49,61.595 C90.613294,61.595 84.4366891,59.3850221 79.96,54.965 C75.483311,50.5449779 73.245,44.4533722 73.245,36.69 L73.245,1.5 L81.405,1.5 L81.405,36.69 Z M177.71,61 L165.895,42.3 C164.534993,42.4133339 163.430004,42.47 162.58,42.47 L147.45,42.47 L147.45,61 L139.29,61 L139.29,1.5 L162.58,1.5 C170.116704,1.5 175.939146,3.24248257 180.0475,6.7275 C184.155854,10.2125174 186.21,15.1566347 186.21,21.56 C186.21,26.3766907 185.090845,30.4283169 182.8525,33.715 C180.614155,37.0016831 177.398354,39.3816593 173.205,40.855 L187.06,61 L177.71,61 Z M162.58,35.075 C167.680026,35.075 171.589986,33.9558445 174.31,31.7175 C177.030014,29.4791555 178.39,26.1783552 178.39,21.815 C178.39,17.5649787 177.030014,14.3491776 174.31,12.1675 C171.589986,9.98582242 167.680026,8.895 162.58,8.895 L147.45,8.895 L147.45,35.075 L162.58,35.075 Z" id="path-1"></path>
        <path d="M0.85,0.5 L47.345,0.5 L47.345,7.98 L28.135,7.98 L28.135,60 L19.975,60 L19.975,7.98 L0.85,7.98 L0.85,0.5 Z M56.695,0.5 L98.005,0.5 L98.005,7.895 L64.855,7.895 L64.855,26.255 L94.52,26.255 L94.52,33.65 L64.855,33.65 L64.855,52.605 L99.025,52.605 L99.025,60 L56.695,60 L56.695,0.5 Z M156.4,60 L150.11,45.55 L118.745,45.55 L112.54,60 L103.955,60 L130.39,0.5 L138.89,0.5 L165.24,60 L156.4,60 Z M121.975,38.155 L146.965,38.155 L134.385,9.255 L121.975,38.155 Z M173.91,0.5 L183.6,0.5 L205.36,42.32 L226.95,0.5 L236.725,0.5 L236.725,60 L229.075,60 L228.99,12.485 L207.825,53.71 L202.81,53.71 L181.475,12.485 L181.475,60 L173.91,60 L173.91,0.5 Z" id="path-2"></path>
    </defs>
    <g id="Page-1" stroke="none" stroke-width="1" fill="none" fill-rule="evenodd">
        <g id="OUR-TEAM" transform="translate(-1.000000, 0.000000)" fill="#000000">
            <g id="OUR" transform="translate(31.500000, 276.500000) rotate(-90.000000) translate(-31.500000, -276.500000) translate(-62.500000, 245.500000)">
                <g>
                    <use xlink:href="#path-1"></use>
                    <use xlink:href="#path-1"></use>
                </g>
            </g>
            <g id="TEam" transform="translate(132.500000, 119.000000) rotate(-90.000000) translate(-132.500000, -119.000000) translate(14.000000, 89.000000)">
                <g id="TEAM">
                    <use xlink:href="#path-2"></use>
                    <use xlink:href="#path-2"></use>
                </g>
            </g>
            <rect id="Rectangle-43" fill-rule="nonzero" x="126" y="264" width="4" height="100"></rect>
        </g>
    </g>
</svg>