<?xml version="1.0" encoding="UTF-8"?>
<svg width="172px" height="470px" viewBox="0 0 172 470" version="1.1" xmlns="http://www.w3.org/2000/svg" xmlns:xlink="http://www.w3.org/1999/xlink">
    <!-- Generator: Sketch 51 (57462) - http://www.bohemiancoding.com/sketch -->
    <title>TREAT-MENTS</title>
    <desc>Created with Sketch.</desc>
    <defs>
        <path d="M0.85,22.5 L47.345,22.5 L47.345,29.98 L28.135,29.98 L28.135,82 L19.975,82 L19.975,29.98 L0.85,29.98 L0.85,22.5 Z M95.115,82 L83.3,63.3 C81.9399932,63.4133339 80.8350042,63.47 79.985,63.47 L64.855,63.47 L64.855,82 L56.695,82 L56.695,22.5 L79.985,22.5 C87.5217044,22.5 93.3441461,24.2424826 97.4525,27.7275 C101.560854,31.2125174 103.615,36.1566347 103.615,42.56 C103.615,47.3766908 102.495845,51.4283169 100.2575,54.715 C98.0191555,58.0016831 94.8033543,60.3816593 90.61,61.855 L104.465,82 L95.115,82 Z M79.985,56.075 C85.0850255,56.075 88.9949864,54.9558445 91.715,52.7175 C94.4350136,50.4791555 95.795,47.1783552 95.795,42.815 C95.795,38.5649788 94.4350136,35.3491776 91.715,33.1675 C88.9949864,30.9858224 85.0850255,29.895 79.985,29.895 L64.855,29.895 L64.855,56.075 L79.985,56.075 Z M118.15,22.5 L159.46,22.5 L159.46,29.895 L126.31,29.895 L126.31,48.255 L155.975,48.255 L155.975,55.65 L126.31,55.65 L126.31,74.605 L160.48,74.605 L160.48,82 L118.15,82 L118.15,22.5 Z M217.855,82 L211.565,67.55 L180.2,67.55 L173.995,82 L165.41,82 L191.845,22.5 L200.345,22.5 L226.695,82 L217.855,82 Z M183.43,60.155 L208.42,60.155 L195.84,31.255 L183.43,60.155 Z M222.02,22.5 L268.515,22.5 L268.515,29.98 L249.305,29.98 L249.305,82 L241.145,82 L241.145,29.98 L222.02,29.98 L222.02,22.5 Z" id="path-1"></path>
        <path d="M8.5,22.5 L18.19,22.5 L39.95,64.32 L61.54,22.5 L71.315,22.5 L71.315,82 L63.665,82 L63.58,34.485 L42.415,75.71 L37.4,75.71 L16.065,34.485 L16.065,82 L8.5,82 L8.5,22.5 Z M88.315,22.5 L129.625,22.5 L129.625,29.895 L96.475,29.895 L96.475,48.255 L126.14,48.255 L126.14,55.65 L96.475,55.65 L96.475,74.605 L130.645,74.605 L130.645,82 L88.315,82 L88.315,22.5 Z M186.15,22.5 L194.225,22.5 L194.225,82 L185.98,82 L151.98,35.93 L151.98,82 L143.82,82 L143.82,22.5 L152.065,22.5 L186.15,68.655 L186.15,22.5 Z M203.66,22.5 L250.155,22.5 L250.155,29.98 L230.945,29.98 L230.945,82 L222.785,82 L222.785,29.98 L203.66,29.98 L203.66,22.5 Z M294.27,34.91 C291.493319,33.1533246 288.617515,31.8358377 285.6425,30.9575 C282.667485,30.0791623 279.933346,29.64 277.44,29.64 C273.983316,29.64 271.220844,30.3058267 269.1525,31.6375 C267.084156,32.9691733 266.05,34.796655 266.05,37.12 C266.05,39.2166771 266.673327,40.9308267 267.92,42.2625 C269.166673,43.5941733 270.696658,44.6424962 272.51,45.4075 C274.323342,46.1725038 276.844984,47.0649949 280.075,48.085 C284.098353,49.3316729 287.356654,50.521661 289.85,51.655 C292.343346,52.788339 294.468325,54.4741555 296.225,56.7125 C297.981675,58.9508445 298.86,61.9116482 298.86,65.595 C298.86,68.995017 297.939176,71.9699873 296.0975,74.52 C294.255824,77.0700127 291.677517,79.0391597 288.3625,80.4275 C285.047483,81.8158403 281.236688,82.51 276.93,82.51 C272.566645,82.51 268.316687,81.6600085 264.18,79.96 C260.043313,78.2599915 256.473348,75.9933475 253.47,73.16 L257.125,66.105 C259.958348,68.8816805 263.145816,71.0208258 266.6875,72.5225 C270.229184,74.0241742 273.67165,74.775 277.015,74.775 C280.981687,74.775 284.112489,73.9958411 286.4075,72.4375 C288.702511,70.8791589 289.85,68.7683466 289.85,66.105 C289.85,64.0083228 289.226673,62.2800068 287.98,60.92 C286.733327,59.5599932 285.160843,58.4833373 283.2625,57.69 C281.364157,56.8966627 278.800016,56.0183381 275.57,55.055 C271.603314,53.864994 268.373346,52.703339 265.88,51.57 C263.386654,50.436661 261.275842,48.765011 259.5475,46.555 C257.819158,44.3449889 256.955,41.4266848 256.955,37.8 C256.955,34.6266508 257.833325,31.8216788 259.59,29.385 C261.346675,26.9483211 263.811651,25.0783398 266.985,23.775 C270.158349,22.4716601 273.841646,21.82 278.035,21.82 C281.605018,21.82 285.10415,22.3441614 288.5325,23.3925 C291.96085,24.4408386 295.006653,25.8433246 297.67,27.6 L294.27,34.91 Z" id="path-2"></path>
    </defs>
    <g id="Page-1" stroke="none" stroke-width="1" fill="none" fill-rule="evenodd">
        <g id="TREAT-MENTS" transform="translate(-22.000000, -5.000000)" fill="#000000">
            <g id="Treat" transform="translate(51.500000, 340.000000) rotate(-90.000000) translate(-51.500000, -340.000000) translate(-83.500000, 288.500000)">
                <g id="TREAT">
                    <use xlink:href="#path-1"></use>
                    <use xlink:href="#path-1"></use>
                </g>
            </g>
            <g id="Ments" transform="translate(162.500000, 152.000000) rotate(-90.000000) translate(-162.500000, -152.000000) translate(10.500000, 100.500000)">
                <g id="MENTS">
                    <use xlink:href="#path-2"></use>
                    <use xlink:href="#path-2"></use>
                </g>
            </g>
            <rect id="Rectangle-43" fill-rule="nonzero" x="159" y="330" width="4" height="135"></rect>
        </g>
    </g>
</svg>