<svg style="position: absolute; width: 0; height: 0; overflow: hidden;" version="1.1" xmlns="http://www.w3.org/2000/svg" xmlns:xlink="http://www.w3.org/1999/xlink">
<defs>
<symbol id="icon-LiftedLogic" viewBox="0 0 221 32">
<title>Lifted Logic Web Design in Kansas City</title>
<path d="M186.049 3.818h-9.095l-11.116 20.884h20.547v-6.625h-8.982z"></path>
<path d="M192.561 3.818h9.095l11.116 20.884h-20.547v-6.625h8.926z"></path>
<path d="M7.691 4.323h4.098v16.112h9.825v3.537h-13.923v-19.649z"></path>
<path d="M27.958 7.691h-3.818v-3.481h3.874l-0.056 3.481zM24.14 9.432h3.874v14.54h-3.874v-14.54z"></path>
<path d="M37.67 4.154l0.786 0.056v3.088c-0.225 0-0.561-0.056-1.067-0.056-0.393-0.056-0.786 0.056-1.011 0.337-0.168 0.225-0.281 0.505-0.281 0.786v1.235h2.47v2.695h-2.526v11.733h-3.761v-11.789h-2.133v-2.695h2.077v-0.954c0-1.572 0.281-2.639 0.786-3.2 0.561-0.898 1.909-1.291 3.986-1.291 0.281 0 0.505 0 0.674 0.056z"></path>
<path d="M40.365 12.295v-2.751h2.021v-4.042h3.761v4.042h2.358v2.695h-2.358v7.691c-0.056 0.393 0 0.786 0.225 1.123 0.449 0.225 0.898 0.281 1.404 0.225h0.786v2.807l-1.797 0.056c-1.797 0.056-3.032-0.225-3.705-0.954-0.449-0.561-0.674-1.291-0.618-2.021v-8.982h-2.077z"></path>
<path d="M60.463 9.712c1.011 0.449 1.909 1.235 2.526 2.133s1.011 1.909 1.179 3.032c0.112 0.954 0.168 1.909 0.112 2.863h-10.611c0.056 1.46 0.561 2.47 1.516 3.088 0.618 0.393 1.347 0.561 2.077 0.561 1.235 0.112 2.358-0.561 2.919-1.684h3.874c-0.168 1.011-0.674 1.909-1.404 2.639-1.291 1.404-3.144 2.133-5.502 2.133-1.853 0-3.705-0.618-5.109-1.797-1.516-1.179-2.246-3.144-2.246-5.839 0-2.526 0.674-4.435 2.021-5.782 1.404-1.347 3.256-2.077 5.221-2.021 1.123 0 2.302 0.225 3.425 0.674zM54.737 13.025c-0.561 0.618-0.898 1.403-1.011 2.246h6.568c0-0.898-0.393-1.684-1.011-2.302-0.618-0.505-1.404-0.786-2.246-0.786-0.842-0.056-1.684 0.225-2.302 0.842z"></path>
<path d="M73.881 9.656c0.674 0.393 1.291 0.954 1.684 1.628v-6.961h3.874v19.649h-3.705v-2.021c-0.449 0.786-1.067 1.404-1.853 1.853-0.786 0.393-1.684 0.618-2.582 0.561-1.684 0-3.256-0.73-4.267-2.077-1.179-1.516-1.796-3.368-1.74-5.277 0-2.47 0.561-4.435 1.74-5.839 1.123-1.403 2.807-2.189 4.603-2.133 0.73 0.056 1.516 0.225 2.246 0.618zM74.835 20.042c0.618-0.898 0.898-2.021 0.842-3.088 0-1.796-0.449-3.032-1.347-3.818-0.561-0.449-1.235-0.73-1.909-0.674-1.011-0.056-1.909 0.449-2.47 1.235-0.561 0.954-0.842 2.021-0.786 3.144-0.056 1.123 0.225 2.246 0.786 3.2 0.505 0.786 1.46 1.291 2.414 1.235 0.954 0 1.909-0.449 2.47-1.235v0z"></path>
<path d="M90.218 4.323h4.098v16.112h9.825v3.537h-13.923v-19.649z"></path>
<path d="M118.175 22.175c-1.235 1.516-3.088 2.246-5.614 2.246s-4.379-0.73-5.614-2.246c-1.235-1.572-1.909-3.481-1.853-5.502-0.056-1.965 0.618-3.93 1.853-5.446s3.088-2.302 5.614-2.302c2.526 0 4.379 0.786 5.614 2.302 1.235 1.572 1.909 3.481 1.853 5.446 0.056 2.021-0.618 3.986-1.853 5.502zM115.144 20.098c0.674-1.011 0.954-2.189 0.898-3.368 0.056-1.179-0.225-2.358-0.898-3.368-1.179-1.403-3.312-1.572-4.772-0.393-0.112 0.112-0.281 0.225-0.393 0.393-0.674 1.011-0.954 2.189-0.898 3.368-0.056 1.179 0.225 2.358 0.898 3.368 1.179 1.404 3.312 1.572 4.772 0.393 0.168-0.112 0.281-0.225 0.393-0.393z"></path>
<path d="M129.965 9.432c0.954 0.449 1.74 1.179 2.246 2.133v-2.077h3.705v13.811c0 1.853-0.337 3.312-0.954 4.267-1.067 1.628-3.144 2.47-6.232 2.47-1.572 0.056-3.144-0.337-4.547-1.123-1.179-0.674-1.909-1.909-1.965-3.256h4.098c0.056 0.393 0.225 0.73 0.505 0.954 0.618 0.393 1.347 0.561 2.077 0.505 1.347 0 2.302-0.449 2.751-1.404 0.393-0.954 0.505-1.965 0.449-2.975v-0.954c-0.281 0.561-0.674 1.011-1.179 1.404-0.842 0.618-1.909 0.898-2.919 0.842-1.74 0.056-3.368-0.674-4.491-1.965s-1.684-3.088-1.684-5.333c-0.056-1.965 0.505-3.874 1.628-5.446 1.067-1.46 2.751-2.302 4.547-2.189 0.674 0 1.347 0.112 1.965 0.337zM131.256 19.874c0.618-0.674 0.898-1.74 0.898-3.2 0.056-1.123-0.225-2.246-0.898-3.2-0.561-0.73-1.404-1.123-2.302-1.067-1.235-0.056-2.358 0.73-2.751 1.909-0.281 0.786-0.449 1.628-0.393 2.47 0 0.786 0.112 1.516 0.449 2.246 0.393 1.179 1.516 1.909 2.751 1.853 0.842-0.056 1.684-0.393 2.246-1.011z"></path>
<path d="M142.26 7.691h-3.874v-3.481h3.874v3.481zM138.386 9.432h3.874v14.54h-3.874v-14.54z"></path>
<path d="M154.105 14.653c-0.056-0.505-0.281-1.011-0.561-1.46-0.449-0.618-1.179-0.954-1.965-0.898-1.235-0.056-2.302 0.73-2.639 1.909-0.281 0.842-0.393 1.796-0.393 2.695-0.056 0.898 0.112 1.74 0.393 2.582 0.337 1.123 1.404 1.853 2.582 1.797 0.73 0.056 1.404-0.168 1.909-0.73 0.393-0.561 0.618-1.179 0.674-1.853h3.874c-0.112 1.179-0.561 2.302-1.235 3.256-1.179 1.684-2.975 2.47-5.333 2.47s-4.042-0.674-5.165-2.077c-1.179-1.572-1.74-3.481-1.684-5.389 0-2.47 0.618-4.435 1.853-5.839 1.291-1.403 3.144-2.189 5.053-2.077 1.572-0.056 3.144 0.337 4.491 1.235 1.179 0.842 1.853 2.246 2.077 4.323l-3.93 0.056z"></path>
</symbol>
<symbol id="icon-clock" viewBox="0 0 32 32">
<title>clock</title>
<path class="path1" d="M16 0c-8.837 0-16 7.163-16 16s7.163 16 16 16 16-7.163 16-16-7.163-16-16-16zM17.055 17.057l-11.747-0.020 0.004-2.11 9.633 0.016v-9.633h2.11v11.747z"></path>
</symbol>
<symbol id="icon-location" viewBox="0 0 32 32">
<title>location</title>
<path class="path1" d="M26.501 7.964c-0.114-0.427-0.345-0.882-0.516-1.28-2.048-4.921-6.522-6.684-10.134-6.684-4.836 0-10.162 3.243-10.873 9.927v1.366c0 0.057 0.020 0.569 0.048 0.825 0.399 3.185 2.912 6.571 4.789 9.756 2.020 3.413 4.115 6.77 6.192 10.126 1.28-2.19 2.556-4.409 3.807-6.542 0.341-0.626 0.737-1.252 1.078-1.849 0.227-0.398 0.662-0.796 0.861-1.166 2.020-3.698 5.27-7.424 5.27-11.093v-1.507c0-0.398-0.493-1.792-0.521-1.877zM15.94 14.82c-1.422 0-2.978-0.711-3.746-2.674-0.114-0.312-0.105-0.939-0.105-0.996v-0.882c0-2.502 2.125-3.64 3.973-3.64 2.276 0 4.036 1.821 4.036 4.096s-1.883 4.096-4.158 4.096z"></path>
</symbol>
<symbol id="icon-phone" viewBox="0 0 32 32">
<title>phone</title>
<path class="path1" d="M31.985 25.248c0.068 0.52-0.090 0.971-0.474 1.355l-4.506 4.471c-0.203 0.226-0.469 0.418-0.796 0.576s-0.649 0.26-0.965 0.305c-0.023 0-0.090 0.006-0.203 0.017s-0.26 0.017-0.44 0.017c-0.429 0-1.124-0.073-2.084-0.22s-2.134-0.508-3.523-1.084c-1.389-0.576-2.964-1.44-4.726-2.592s-3.636-2.733-5.623-4.743c-1.581-1.558-2.891-3.049-3.93-4.472s-1.874-2.738-2.507-3.947c-0.632-1.208-1.107-2.304-1.423-3.286s-0.531-1.829-0.644-2.541-0.158-1.27-0.136-1.677c0.023-0.407 0.034-0.632 0.034-0.678 0.045-0.316 0.147-0.638 0.305-0.965s0.35-0.593 0.576-0.796l4.506-4.506c0.316-0.316 0.678-0.474 1.084-0.474 0.294 0 0.553 0.085 0.779 0.254s0.418 0.378 0.576 0.627l3.625 6.877c0.203 0.361 0.26 0.757 0.169 1.186s-0.282 0.79-0.576 1.084l-1.66 1.66c-0.045 0.045-0.085 0.119-0.119 0.22s-0.051 0.186-0.051 0.254c0.090 0.474 0.294 1.016 0.61 1.626 0.271 0.542 0.689 1.203 1.253 1.982s1.366 1.677 2.405 2.693c1.016 1.039 1.92 1.846 2.71 2.422s1.451 0.999 1.982 1.27 0.937 0.435 1.22 0.491l0.423 0.085c0.045 0 0.119-0.017 0.22-0.051s0.175-0.073 0.22-0.119l1.931-1.965c0.407-0.361 0.881-0.542 1.423-0.542 0.384 0 0.689 0.068 0.915 0.203h0.034l6.538 3.862c0.474 0.294 0.757 0.666 0.847 1.118z"></path>
</symbol>
<symbol id="icon-play" viewBox="0 0 32 32">
<title>play</title>
<path d="M1.135 32c-0.136 0-0.272-0.029-0.399-0.089-0.331-0.155-0.542-0.487-0.542-0.852v-30.118c0-0.365 0.211-0.698 0.542-0.852 0.329-0.154 0.721-0.104 1.001 0.129l18.071 15.059c0.215 0.179 0.339 0.444 0.339 0.723s-0.124 0.544-0.339 0.723l-18.071 15.059c-0.172 0.144-0.386 0.218-0.602 0.218zM2.076 2.95v26.099l15.659-13.050-15.659-13.050z"></path>
<path d="M12.794 32c-0.136 0-0.272-0.029-0.399-0.089-0.331-0.155-0.542-0.487-0.542-0.852v-4.663c0-0.52 0.422-0.941 0.941-0.941s0.941 0.422 0.941 0.941v2.654l15.659-13.050-15.659-13.050v2.654c0 0.52-0.422 0.941-0.941 0.941s-0.941-0.422-0.941-0.941v-4.663c0-0.365 0.211-0.698 0.542-0.852 0.329-0.154 0.721-0.104 1.001 0.129l18.071 15.059c0.215 0.179 0.339 0.444 0.339 0.723s-0.124 0.544-0.339 0.723l-18.071 15.059c-0.172 0.144-0.386 0.218-0.602 0.218z"></path>
</symbol>
<symbol id="icon-check_box_outline_blank" viewBox="0 0 32 32">
<title>check_box_outline_blank</title>
<path class="path1" d="M25.312 4c1.437 0 2.688 1.251 2.688 2.688v18.625c0 1.437-1.251 2.688-2.688 2.688h-18.625c-1.437 0-2.688-1.251-2.688-2.688v-18.625c0-1.437 1.251-2.688 2.688-2.688h18.625zM25.312 6.688h-18.625v18.625h18.625v-18.625z"></path>
</symbol>
<symbol id="icon-check_box" viewBox="0 0 32 32">
<title>check_box</title>
<path class="path1" d="M13.312 22.688l12-12-1.875-1.937-10.125 10.125-4.751-4.751-1.875 1.875zM25.312 4c1.5 0 2.688 1.251 2.688 2.688v18.625c0 1.437-1.188 2.688-2.688 2.688h-18.625c-1.5 0-2.688-1.251-2.688-2.688v-18.625c0-1.437 1.188-2.688 2.688-2.688h18.625z"></path>
</symbol>
<symbol id="icon-chevron-down" viewBox="0 0 32 32">
<title>chevron-down</title>
<path class="path1" d="M9.875 10.437l6.125 6.125 6.125-6.125 1.875 1.875-8 8-8-8z"></path>
</symbol>
<symbol id="icon-chevron-left" viewBox="0 0 32 32">
<title>chevron-left</title>
<path class="path1" d="M20.563 21.437l-1.875 1.875-8-8 8-8 1.875 1.875-6.125 6.125z"></path>
</symbol>
<symbol id="icon-chevron-right" viewBox="0 0 32 32">
<title>chevron-right</title>
<path class="path1" d="M11.437 21.812l6.125-6.125-6.125-6.125 1.875-1.875 8 8-8 8z"></path>
</symbol>
<symbol id="icon-chevron-up" viewBox="0 0 32 32">
<title>chevron-up</title>
<path class="path1" d="M9.875 20.563l-1.875-1.875 8-8 8 8-1.875 1.875-6.125-6.125z"></path>
</symbol>
<symbol id="icon-facebook" viewBox="0 0 19 32">
<title>facebook</title>
<path class="path1" d="M17.125 0.214v4.714h-2.804q-1.536 0-2.071 0.643t-0.536 1.929v3.375h5.232l-0.696 5.286h-4.536v13.554h-5.464v-13.554h-4.554v-5.286h4.554v-3.893q0-3.321 1.857-5.152t4.946-1.83q2.625 0 4.071 0.214z"></path>
</symbol>
<symbol id="icon-instagram" viewBox="0 0 27 32">
<title>instagram</title>
<path class="path1" d="M18.286 16q0-1.893-1.339-3.232t-3.232-1.339-3.232 1.339-1.339 3.232 1.339 3.232 3.232 1.339 3.232-1.339 1.339-3.232zM20.75 16q0 2.929-2.054 4.982t-4.982 2.054-4.982-2.054-2.054-4.982 2.054-4.982 4.982-2.054 4.982 2.054 2.054 4.982zM22.679 8.679q0 0.679-0.482 1.161t-1.161 0.482-1.161-0.482-0.482-1.161 0.482-1.161 1.161-0.482 1.161 0.482 0.482 1.161zM13.714 4.75q-0.125 0-1.366-0.009t-1.884 0-1.723 0.054-1.839 0.179-1.277 0.33q-0.893 0.357-1.571 1.036t-1.036 1.571q-0.196 0.518-0.33 1.277t-0.179 1.839-0.054 1.723 0 1.884 0.009 1.366-0.009 1.366 0 1.884 0.054 1.723 0.179 1.839 0.33 1.277q0.357 0.893 1.036 1.571t1.571 1.036q0.518 0.196 1.277 0.33t1.839 0.179 1.723 0.054 1.884 0 1.366-0.009 1.366 0.009 1.884 0 1.723-0.054 1.839-0.179 1.277-0.33q0.893-0.357 1.571-1.036t1.036-1.571q0.196-0.518 0.33-1.277t0.179-1.839 0.054-1.723 0-1.884-0.009-1.366 0.009-1.366 0-1.884-0.054-1.723-0.179-1.839-0.33-1.277q-0.357-0.893-1.036-1.571t-1.571-1.036q-0.518-0.196-1.277-0.33t-1.839-0.179-1.723-0.054-1.884 0-1.366 0.009zM27.429 16q0 4.089-0.089 5.661-0.179 3.714-2.214 5.75t-5.75 2.214q-1.571 0.089-5.661 0.089t-5.661-0.089q-3.714-0.179-5.75-2.214t-2.214-5.75q-0.089-1.571-0.089-5.661t0.089-5.661q0.179-3.714 2.214-5.75t5.75-2.214q1.571-0.089 5.661-0.089t5.661 0.089q3.714 0.179 5.75 2.214t2.214 5.75q0.089 1.571 0.089 5.661z"></path>
</symbol>
<symbol id="icon-google_plus" viewBox="0 0 36 28">
<title>google plus</title>
<path d="M22.453 14.266c0 6.547-4.391 11.188-11 11.188-6.328 0-11.453-5.125-11.453-11.453s5.125-11.453 11.453-11.453c3.094 0 5.672 1.125 7.672 3l-3.109 2.984c-0.844-0.812-2.328-1.766-4.562-1.766-3.906 0-7.094 3.234-7.094 7.234s3.187 7.234 7.094 7.234c4.531 0 6.234-3.266 6.5-4.937h-6.5v-3.938h10.813c0.109 0.578 0.187 1.156 0.187 1.906zM36 12.359v3.281h-3.266v3.266h-3.281v-3.266h-3.266v-3.281h3.266v-3.266h3.281v3.266h3.266z"></path>
</symbol>
<symbol id="icon-pinterest" viewBox="0 0 23 32">
<title>pinterest</title>
<path class="path1" d="M0 10.661q0-1.929 0.67-3.634t1.848-2.973 2.714-2.196 3.304-1.393 3.607-0.464q2.821 0 5.25 1.188t3.946 3.455 1.518 5.125q0 1.714-0.339 3.357t-1.071 3.161-1.786 2.67-2.589 1.839-3.375 0.688q-1.214 0-2.411-0.571t-1.714-1.571q-0.179 0.696-0.5 2.009t-0.42 1.696-0.366 1.268-0.464 1.268-0.571 1.116-0.821 1.384-1.107 1.545l-0.25 0.089-0.161-0.179q-0.268-2.804-0.268-3.357 0-1.643 0.384-3.688t1.188-5.134 0.929-3.625q-0.571-1.161-0.571-3.018 0-1.482 0.929-2.786t2.357-1.304q1.089 0 1.696 0.723t0.607 1.83q0 1.179-0.786 3.411t-0.786 3.339q0 1.125 0.804 1.866t1.946 0.741q0.982 0 1.821-0.446t1.402-1.214 1-1.696 0.679-1.973 0.357-1.982 0.116-1.777q0-3.089-1.955-4.813t-5.098-1.723q-3.571 0-5.964 2.313t-2.393 5.866q0 0.786 0.223 1.518t0.482 1.161 0.482 0.813 0.223 0.545q0 0.5-0.268 1.304t-0.661 0.804q-0.036 0-0.304-0.054-0.911-0.268-1.616-1t-1.089-1.688-0.58-1.929-0.196-1.902z"></path>
</symbol>
<symbol id="icon-radio_button_checked" viewBox="0 0 32 32">
<title>radio_button_checked</title>
<path class="path1" d="M16 26.688c5.875 0 10.688-4.812 10.688-10.688s-4.812-10.688-10.688-10.688-10.688 4.812-10.688 10.688 4.812 10.688 10.688 10.688zM16 2.688c7.375 0 13.312 5.937 13.312 13.312s-5.937 13.312-13.312 13.312-13.312-5.937-13.312-13.312 5.937-13.312 13.312-13.312zM16 9.312c3.688 0 6.688 3 6.688 6.688s-3 6.688-6.688 6.688-6.688-3-6.688-6.688 3-6.688 6.688-6.688z"></path>
</symbol>
<symbol id="icon-radio_button_unchecked" viewBox="0 0 32 32">
<title>radio_button_unchecked</title>
<path class="path1" d="M16 26.688c5.875 0 10.688-4.812 10.688-10.688s-4.812-10.688-10.688-10.688-10.688 4.812-10.688 10.688 4.812 10.688 10.688 10.688zM16 2.688c7.375 0 13.312 5.937 13.312 13.312s-5.937 13.312-13.312 13.312-13.312-5.937-13.312-13.312 5.937-13.312 13.312-13.312z"></path>
</symbol>
<symbol id="icon-twitter" viewBox="0 0 30 32">
<title>twitter</title>
<path class="path1" d="M28.929 7.286q-1.196 1.75-2.893 2.982 0.018 0.25 0.018 0.75 0 2.321-0.679 4.634t-2.063 4.437-3.295 3.759-4.607 2.607-5.768 0.973q-4.839 0-8.857-2.589 0.625 0.071 1.393 0.071 4.018 0 7.161-2.464-1.875-0.036-3.357-1.152t-2.036-2.848q0.589 0.089 1.089 0.089 0.768 0 1.518-0.196-2-0.411-3.313-1.991t-1.313-3.67v-0.071q1.214 0.679 2.607 0.732-1.179-0.786-1.875-2.054t-0.696-2.75q0-1.571 0.786-2.911 2.161 2.661 5.259 4.259t6.634 1.777q-0.143-0.679-0.143-1.321 0-2.393 1.688-4.080t4.080-1.688q2.5 0 4.214 1.821 1.946-0.375 3.661-1.393-0.661 2.054-2.536 3.179 1.661-0.179 3.321-0.893z"></path>
</symbol>
<symbol id="icon-youtube" viewBox="0 0 27 32">
<title>youtube</title>
<path class="path1" d="M17.339 22.214v3.768q0 1.196-0.696 1.196-0.411 0-0.804-0.393v-5.375q0.393-0.393 0.804-0.393 0.696 0 0.696 1.196zM23.375 22.232v0.821h-1.607v-0.821q0-1.214 0.804-1.214t0.804 1.214zM6.125 18.339h1.911v-1.679h-5.571v1.679h1.875v10.161h1.786v-10.161zM11.268 28.5h1.589v-8.821h-1.589v6.75q-0.536 0.75-1.018 0.75-0.321 0-0.375-0.375-0.018-0.054-0.018-0.625v-6.5h-1.589v6.982q0 0.875 0.143 1.304 0.214 0.661 1.036 0.661 0.857 0 1.821-1.089v0.964zM18.929 25.857v-3.518q0-1.304-0.161-1.768-0.304-1-1.268-1-0.893 0-1.661 0.964v-3.875h-1.589v11.839h1.589v-0.857q0.804 0.982 1.661 0.982 0.964 0 1.268-0.982 0.161-0.482 0.161-1.786zM24.964 25.679v-0.232h-1.625q0 0.911-0.036 1.089-0.125 0.643-0.714 0.643-0.821 0-0.821-1.232v-1.554h3.196v-1.839q0-1.411-0.482-2.071-0.696-0.911-1.893-0.911-1.214 0-1.911 0.911-0.5 0.661-0.5 2.071v3.089q0 1.411 0.518 2.071 0.696 0.911 1.929 0.911 1.286 0 1.929-0.946 0.321-0.482 0.375-0.964 0.036-0.161 0.036-1.036zM14.107 9.375v-3.75q0-1.232-0.768-1.232t-0.768 1.232v3.75q0 1.25 0.768 1.25t0.768-1.25zM26.946 22.786q0 4.179-0.464 6.25-0.25 1.054-1.036 1.768t-1.821 0.821q-3.286 0.375-9.911 0.375t-9.911-0.375q-1.036-0.107-1.83-0.821t-1.027-1.768q-0.464-2-0.464-6.25 0-4.179 0.464-6.25 0.25-1.054 1.036-1.768t1.839-0.839q3.268-0.357 9.893-0.357t9.911 0.357q1.036 0.125 1.83 0.839t1.027 1.768q0.464 2 0.464 6.25zM9.125 0h1.821l-2.161 7.125v4.839h-1.786v-4.839q-0.25-1.321-1.089-3.786-0.661-1.839-1.161-3.339h1.893l1.268 4.696zM15.732 5.946v3.125q0 1.446-0.5 2.107-0.661 0.911-1.893 0.911-1.196 0-1.875-0.911-0.5-0.679-0.5-2.107v-3.125q0-1.429 0.5-2.089 0.679-0.911 1.875-0.911 1.232 0 1.893 0.911 0.5 0.661 0.5 2.089zM21.714 3.054v8.911h-1.625v-0.982q-0.946 1.107-1.839 1.107-0.821 0-1.054-0.661-0.143-0.429-0.143-1.339v-7.036h1.625v6.554q0 0.589 0.018 0.625 0.054 0.393 0.375 0.393 0.482 0 1.018-0.768v-6.804h1.625z"></path>
</symbol>
<symbol id="icon-arrow-up" viewBox="0 0 24 24">
<title>arrow-up</title>
<path class="path1" d="M6.984 14.016l5.016-5.016 5.016 5.016h-10.031z"></path>
</symbol>
<symbol id="icon-send" viewBox="0 0 24 24">
<title>send</title>
<path d="M2.016 21v-6.984l15-2.016-15-2.016v-6.984l21 9z"></path>
</symbol>
<symbol id="icon-cp-instagram" viewBox="0 0 32 32">

<!-- Social media -->
<title>cp-instagram</title>
<path fill="#e2a187" style="fill: var(--color1, #e2a187)" d="M24 0h-16c-4.4 0-8 3.599-8 8v16c0 4.4 3.6 8 8 8h16c4.4 0 8-3.6 8-8v-16c0-4.401-3.6-8-8-8zM16 22.666c-3.682 0-6.667-2.986-6.667-6.666 0-3.682 2.984-6.667 6.667-6.667 3.681 0 6.667 2.984 6.667 6.667 0 3.681-2.986 6.666-6.667 6.666zM24.667 9.333c-1.106 0-2-0.896-2-2s0.894-2 2-2c1.106 0 2 0.896 2 2s-0.894 2-2 2z"></path>
</symbol>
<symbol id="icon-cp-tumblr" viewBox="0 0 23 32">
<title>cp-tumblr</title>
<path fill="#e2a187" style="fill: var(--color1, #e2a187)" d="M16.997 26.27c-0.852 0-1.651-0.198-2.311-0.598-0.528-0.305-0.992-0.823-1.177-1.316-0.184-0.503-0.165-1.531-0.165-3.291v-6.979h7.684v-5.703h-7.684v-7.621h-4.951c-0.2 1.568-0.559 2.869-1.087 3.874-0.505 1.025-1.215 1.891-2.054 2.625-0.868 0.726-2.211 1.28-3.425 1.674v4.318h4.121v10.68c0 1.4 0.142 2.469 0.445 3.198 0.298 0.735 0.806 1.427 1.584 2.074 0.764 0.655 1.678 1.158 2.77 1.512 1.063 0.349 1.9 0.52 3.307 0.52 1.234 0 2.388-0.116 3.444-0.373 1.058-0.238 2.208-0.6 3.528-1.211v-4.581c-1.543 1-2.474 1.198-4.031 1.198z"></path>
</symbol>
<symbol id="icon-cp-snapchat" viewBox="0 0 40 32">
<title>cp-snapchat</title>
<path fill="#e2a187" style="fill: var(--color1, #e2a187)" d="M37.075 23.746c-4.507-0.69-6.56-4.925-6.78-5.405-0.004-0.009-0.021-0.043-0.026-0.053-0.226-0.426-0.282-0.773-0.164-1.028 0.237-0.52 1.239-0.815 1.881-1.003 0.181-0.054 0.35-0.104 0.485-0.154 1.298-0.476 1.95-1.085 1.936-1.81-0.013-0.575-0.498-1.104-1.218-1.34-0.248-0.096-0.543-0.149-0.83-0.149-0.199 0-0.494 0.026-0.775 0.148-0.55 0.239-1.038 0.367-1.408 0.382-0.165-0.006-0.289-0.032-0.379-0.060 0.011-0.181 0.024-0.367 0.037-0.557l0.007-0.097c0.153-2.259 0.343-5.070-0.466-6.754-2.394-4.986-7.474-5.374-8.974-5.374l-0.7 0.006c-1.497 0-6.568 0.387-8.959 5.37-0.811 1.688-0.619 4.498-0.466 6.757 0.015 0.222 0.030 0.439 0.043 0.65-0.103 0.033-0.25 0.061-0.451 0.061-0.43 0-0.946-0.13-1.532-0.384-0.847-0.369-2.396 0.124-2.605 1.145-0.114 0.553 0.126 1.35 1.913 2.006 0.139 0.051 0.314 0.103 0.528 0.166 0.599 0.177 1.602 0.472 1.839 0.991 0.117 0.256 0.061 0.602-0.186 1.072-0.088 0.191-2.211 4.681-6.899 5.398-0.486 0.074-0.833 0.475-0.806 0.931 0.008 0.127 0.039 0.254 0.098 0.383 0.394 0.856 1.894 1.45 4.718 1.867 0.062 0.149 0.134 0.455 0.175 0.632 0.060 0.253 0.122 0.514 0.207 0.785 0.086 0.274 0.341 0.734 1.079 0.734 0.25 0 0.539-0.053 0.853-0.109 0.452-0.082 1.069-0.194 1.835-0.194 0.425 0 0.867 0.035 1.315 0.104 0.845 0.13 1.586 0.617 2.445 1.181 1.265 0.831 2.416 1.467 4.717 1.467 0.061 0 0.121-0.002 0.18-0.006 0.085 0.004 0.171 0.006 0.258 0.006 2.015 0 3.789-0.494 5.273-1.469 0.82-0.539 1.595-1.049 2.44-1.18 0.449-0.069 0.892-0.104 1.317-0.104 0.734 0 1.32 0.087 1.843 0.183 0.353 0.065 0.63 0.096 0.885 0.096 0.515 0 0.894-0.263 1.039-0.722 0.083-0.267 0.146-0.521 0.207-0.78 0.032-0.138 0.11-0.468 0.175-0.627 2.784-0.411 4.205-0.982 4.599-1.836 0.059-0.123 0.094-0.253 0.103-0.392 0.026-0.456-0.319-0.857-0.806-0.933z"></path>
</symbol>
<symbol id="icon-cp-twitter" viewBox="0 0 37 32">
<title>cp-twitter</title>
<path fill="#e2a187" style="fill: var(--color1, #e2a187)" d="M36.549 4.6c-1.316 0.6-2.729 1.006-4.213 1.188 1.515-0.933 2.675-2.413 3.225-4.17-1.421 0.864-2.99 1.491-4.662 1.831-1.339-1.468-3.243-2.383-5.355-2.383-4.052 0-7.337 3.378-7.337 7.541 0 0.59 0.065 1.167 0.19 1.719-6.097-0.315-11.503-3.318-15.121-7.881-0.632 1.112-0.992 2.408-0.992 3.791 0 2.617 1.296 4.926 3.263 6.277-1.202-0.041-2.333-0.381-3.323-0.947v0.094c0 3.653 2.53 6.702 5.884 7.396-0.615 0.17-1.263 0.264-1.933 0.264-0.474 0-0.932-0.048-1.381-0.14 0.934 2.998 3.643 5.179 6.852 5.239-2.51 2.022-5.674 3.224-9.112 3.224-0.592 0-1.176-0.037-1.75-0.103 3.247 2.144 7.102 3.394 11.246 3.394 13.496 0 20.874-11.493 20.874-21.46l-0.025-0.976c1.441-1.057 2.688-2.385 3.67-3.897z"></path>
</symbol>
<symbol id="icon-cp-facebook" viewBox="0 0 22 32">
<title>cp-facebook</title>
<path fill="#e2a187" style="fill: var(--color1, #e2a187)" d="M19.296 0.499l-4.264-0.006c-4.791 0-7.886 2.996-7.886 7.633v3.519h-4.287c-0.37 0-0.671 0.283-0.671 0.633v5.099c0 0.349 0.3 0.632 0.671 0.632h4.287v12.867c0 0.349 0.3 0.632 0.67 0.632h5.594c0.37 0 0.671-0.283 0.671-0.632v-12.867h5.013c0.37 0 0.671-0.283 0.671-0.632l0.002-5.099c0-0.168-0.071-0.328-0.196-0.447s-0.297-0.186-0.474-0.186h-5.015v-2.983c0-1.434 0.362-2.162 2.343-2.162l2.872-0.001c0.37 0 0.67-0.283 0.67-0.632v-4.735c0-0.349-0.3-0.632-0.669-0.632z"></path>
</symbol>

<!-- Headers -->
<symbol id="icon-TREAT-MENTS" viewBox="0 0 12 32">
<title>TREAT-MENTS</title>
<path d="M0.034 31.942v-3.166h0.509v1.308h3.542v0.556h-3.542v1.302h-0.509zM4.085 25.524l-1.273 0.804c0.008 0.093 0.012 0.168 0.012 0.226v1.030h1.262v0.556h-4.051v-1.586c0-0.513 0.119-0.91 0.356-1.189s0.574-0.42 1.010-0.42c0.328 0 0.604 0.076 0.828 0.229s0.386 0.371 0.486 0.657l1.372-0.943v0.637zM2.32 26.554c0-0.347-0.076-0.613-0.229-0.799s-0.377-0.278-0.674-0.278c-0.289 0-0.508 0.093-0.657 0.278s-0.223 0.451-0.223 0.799v1.030h1.782v-1.030zM0.034 23.956v-2.813h0.503v2.257h1.25v-2.020h0.503v2.020h1.291v-2.326h0.503v2.882h-4.051zM4.085 17.167l-0.984 0.428v2.136l0.984 0.422v0.584l-4.051-1.8v-0.579l4.051-1.794v0.602zM2.598 19.511v-1.701l-1.968 0.857 1.968 0.845zM0.034 16.884v-3.166h0.509v1.308h3.542v0.556h-3.542v1.302h-0.509z"></path>
<path d="M7.591 19.779v-0.66l2.847-1.482-2.847-1.47v-0.666h4.051v0.521l-3.235 0.006 2.807 1.441v0.341l-2.807 1.453h3.235v0.515h-4.051zM7.591 14.345v-2.813h0.504v2.257h1.25v-2.020h0.504v2.020h1.291v-2.326h0.504v2.882h-4.051zM7.591 7.683v-0.55h4.051v0.561l-3.137 2.315h3.137v0.556h-4.051v-0.561l3.142-2.321h-3.142zM7.591 6.491v-3.166h0.509v1.308h3.542v0.556h-3.542v1.302h-0.509zM8.436 0.322c-0.12 0.189-0.209 0.385-0.269 0.587s-0.090 0.389-0.090 0.558c0 0.235 0.045 0.423 0.136 0.564s0.215 0.211 0.373 0.211c0.143 0 0.259-0.042 0.35-0.127s0.162-0.189 0.214-0.313c0.052-0.123 0.113-0.295 0.182-0.515 0.085-0.274 0.166-0.496 0.243-0.666s0.192-0.314 0.344-0.434c0.152-0.12 0.354-0.179 0.605-0.179 0.232 0 0.434 0.063 0.608 0.188s0.308 0.301 0.402 0.527c0.095 0.226 0.142 0.485 0.142 0.778 0 0.297-0.058 0.586-0.174 0.868s-0.27 0.525-0.463 0.729l-0.48-0.249c0.189-0.193 0.335-0.41 0.437-0.651s0.153-0.476 0.153-0.703c0-0.27-0.053-0.483-0.159-0.639s-0.25-0.234-0.431-0.234c-0.143 0-0.26 0.042-0.353 0.127s-0.166 0.192-0.22 0.321c-0.054 0.129-0.114 0.304-0.179 0.524-0.081 0.27-0.16 0.49-0.237 0.66s-0.191 0.313-0.341 0.431c-0.15 0.118-0.349 0.176-0.596 0.176-0.216 0-0.407-0.060-0.573-0.179s-0.293-0.287-0.382-0.503c-0.089-0.216-0.133-0.467-0.133-0.752 0-0.243 0.036-0.481 0.107-0.715s0.167-0.441 0.286-0.622l0.498 0.232z"></path>
<path d="M9.328 22.128h0.272v9.191h-0.272v-9.191z"></path>
</symbol>
<symbol id="icon-Treatments-Horizontal" viewBox="0 0 98 32">
<title>Treatments-Horizontal</title>
<path fill="#fff" style="fill: var(--color1, #fff)" d="M27.619 25.143v0.762h-25.714v-0.762h25.714z"></path>
<path fill="#fff" style="fill: var(--color1, #fff)" d="M0.18 0.11h9.245v1.927h-3.53v9.407h-2.186v-9.407h-3.53v-1.927zM20.078 11.443l-1.959-3.351c-0.086 0.011-0.221 0.016-0.405 0.016h-2.558v3.335h-2.17v-11.333h4.728c1.468 0 2.601 0.34 3.4 1.020s1.198 1.641 1.198 2.882c0 0.885-0.192 1.641-0.575 2.267s-0.942 1.096-1.676 1.409l2.493 3.756h-2.477zM15.156 6.197h2.558c0.82 0 1.446-0.178 1.878-0.534s0.648-0.885 0.648-1.587c0-0.691-0.216-1.209-0.648-1.554s-1.058-0.518-1.878-0.518h-2.558v4.193zM26.716 0.11h8.306v1.894h-6.136v2.801h5.505v1.894h-5.505v2.85h6.33v1.894h-8.5v-11.333zM47.828 11.443l-1.004-2.396h-5.537l-1.004 2.396h-2.25l4.97-11.333h2.25l4.906 11.333h-2.331zM42.064 7.185h3.983l-1.975-4.76-2.008 4.76zM51.147 0.11h9.245v1.927h-3.53v9.407h-2.186v-9.407h-3.53v-1.927z"></path>
<path fill="#fff" style="fill: var(--color1, #fff)" d="M33.767 20.383h2.477l3.756 7.302 3.724-7.302h2.477v11.333h-1.991v-8.128l-3.53 6.962h-1.392l-3.546-6.962v8.128h-1.975v-11.333zM51.010 20.383h8.306v1.894h-6.136v2.801h5.505v1.894h-5.505v2.85h6.33v1.894h-8.5v-11.333zM71.637 20.383h2.105v11.333h-2.056l-5.829-7.804v7.804h-2.121v-11.333h2.056l5.845 7.82v-7.82zM77.287 20.383h9.245v1.927h-3.53v9.407h-2.186v-9.407h-3.53v-1.927zM97.218 23.297c-0.583-0.356-1.179-0.631-1.789-0.826s-1.147-0.291-1.611-0.291c-0.518 0-0.928 0.097-1.23 0.291s-0.453 0.464-0.453 0.81c0 0.313 0.105 0.575 0.316 0.785s0.475 0.383 0.793 0.518c0.318 0.135 0.753 0.283 1.303 0.445 0.766 0.227 1.395 0.453 1.886 0.68s0.909 0.561 1.255 1.004c0.345 0.443 0.518 1.025 0.518 1.749 0 0.691-0.186 1.293-0.559 1.805s-0.885 0.904-1.538 1.174c-0.653 0.27-1.4 0.405-2.242 0.405-0.885 0-1.749-0.165-2.59-0.494s-1.576-0.769-2.202-1.32l0.907-1.846c0.572 0.529 1.214 0.944 1.927 1.247s1.376 0.453 1.991 0.453c0.604 0 1.079-0.116 1.425-0.348s0.518-0.548 0.518-0.947c0-0.324-0.105-0.591-0.316-0.801s-0.478-0.38-0.801-0.51c-0.324-0.13-0.766-0.275-1.328-0.437-0.766-0.227-1.392-0.448-1.878-0.664s-0.901-0.542-1.247-0.98c-0.345-0.437-0.518-1.012-0.518-1.724 0-0.658 0.175-1.233 0.526-1.724s0.847-0.872 1.49-1.141c0.642-0.27 1.384-0.405 2.226-0.405 0.734 0 1.46 0.108 2.178 0.324s1.357 0.507 1.919 0.874l-0.874 1.894z"></path>
</symbol>
<symbol id="icon-ABOUT-CPB" viewBox="0 0 13 32">
<title>ABOUT-CPB</title>
<path d="M5.042 27.567l-1.204 0.524v2.614l1.204 0.517v0.715l-4.958-2.203v-0.708l4.958-2.196v0.737zM3.221 30.435v-2.082l-2.408 1.048 2.408 1.034zM0.083 23.99c0-0.505 0.11-0.903 0.329-1.194s0.523-0.436 0.91-0.436c0.283 0 0.523 0.080 0.719 0.241s0.327 0.38 0.393 0.659c0.052-0.345 0.19-0.615 0.414-0.811s0.504-0.294 0.839-0.294c0.425 0 0.757 0.159 0.995 0.478s0.358 0.759 0.358 1.321v2.153h-4.958v-2.118zM2.187 24.025c0-0.307-0.065-0.544-0.195-0.712s-0.315-0.251-0.556-0.251c-0.236 0-0.418 0.084-0.545 0.251s-0.189 0.405-0.184 0.712v1.402h1.48v-1.402zM4.418 24.025c0.005-0.368-0.065-0.656-0.209-0.864s-0.346-0.312-0.606-0.312c-0.25 0-0.446 0.104-0.588 0.312s-0.212 0.496-0.212 0.864v1.402h1.615v-1.402zM0.041 18.897c0-0.477 0.111-0.915 0.333-1.314s0.525-0.714 0.91-0.946c0.385-0.231 0.809-0.347 1.271-0.347s0.889 0.116 1.279 0.347c0.39 0.231 0.697 0.547 0.921 0.946s0.336 0.837 0.336 1.314c0 0.477-0.112 0.915-0.336 1.314s-0.531 0.714-0.921 0.946c-0.39 0.231-0.816 0.347-1.279 0.347s-0.887-0.116-1.271-0.347c-0.385-0.231-0.688-0.545-0.91-0.942s-0.333-0.836-0.333-1.317zM0.65 18.89c0 0.345 0.085 0.665 0.255 0.96s0.4 0.53 0.691 0.705c0.29 0.175 0.61 0.262 0.96 0.262s0.671-0.087 0.963-0.262c0.293-0.175 0.525-0.41 0.698-0.705s0.259-0.615 0.259-0.96c0-0.345-0.086-0.662-0.259-0.953s-0.405-0.522-0.698-0.694c-0.293-0.172-0.614-0.259-0.963-0.259s-0.669 0.086-0.96 0.259c-0.29 0.172-0.521 0.404-0.691 0.694s-0.255 0.608-0.255 0.953zM3.016 14.739c0.458 0 0.816-0.126 1.073-0.379s0.386-0.601 0.386-1.045c0-0.439-0.129-0.784-0.386-1.034s-0.615-0.375-1.073-0.375h-2.933v-0.68h2.933c0.647 0 1.155 0.185 1.523 0.556s0.553 0.882 0.553 1.534c0 0.656-0.184 1.171-0.553 1.544s-0.876 0.56-1.523 0.56h-2.933v-0.68h2.933zM0.083 10.553v-3.875h0.623v1.601h4.335v0.68h-4.335v1.594h-0.623z"></path>
<path d="M8.69 10.075c-0.198 0.189-0.353 0.408-0.464 0.659s-0.166 0.508-0.166 0.772c0 0.349 0.085 0.671 0.255 0.963s0.4 0.524 0.691 0.694c0.29 0.17 0.61 0.255 0.96 0.255 0.345 0 0.663-0.085 0.956-0.255s0.524-0.401 0.694-0.694c0.17-0.293 0.255-0.614 0.255-0.963 0-0.26-0.053-0.515-0.159-0.765s-0.251-0.472-0.436-0.666l0.446-0.411c0.246 0.25 0.438 0.541 0.577 0.871s0.209 0.666 0.209 1.006c0 0.472-0.112 0.904-0.336 1.296s-0.53 0.701-0.917 0.928c-0.387 0.227-0.815 0.34-1.282 0.34-0.463 0-0.887-0.114-1.271-0.344s-0.688-0.542-0.91-0.939c-0.222-0.397-0.333-0.833-0.333-1.31 0-0.345 0.065-0.679 0.195-1.002s0.313-0.603 0.549-0.839l0.489 0.404zM7.5 6.803c0-0.619 0.146-1.097 0.439-1.434s0.704-0.506 1.232-0.506c0.553 0 0.981 0.17 1.286 0.51s0.457 0.817 0.457 1.431v1.233h1.544v0.68h-4.958v-1.912zM10.298 6.831c0-0.425-0.093-0.751-0.28-0.978s-0.462-0.34-0.825-0.34c-0.354 0-0.622 0.113-0.804 0.34s-0.273 0.553-0.273 0.978l0.007 1.204h2.175v-1.204zM7.5 1.845c0-0.505 0.11-0.903 0.329-1.194s0.523-0.436 0.91-0.436c0.283 0 0.523 0.080 0.719 0.241s0.327 0.38 0.393 0.659c0.052-0.345 0.19-0.615 0.414-0.811s0.504-0.294 0.839-0.294c0.425 0 0.757 0.159 0.995 0.478s0.358 0.759 0.358 1.321v2.153h-4.958v-2.118zM9.604 1.88c0-0.307-0.065-0.544-0.195-0.712s-0.315-0.251-0.556-0.251c-0.236 0-0.418 0.084-0.545 0.251s-0.189 0.405-0.184 0.712v1.402h1.48v-1.403zM11.835 1.88c0.005-0.368-0.065-0.656-0.209-0.864s-0.346-0.312-0.606-0.312c-0.25 0-0.446 0.104-0.588 0.312s-0.213 0.496-0.213 0.864v1.402h1.615v-1.403z"></path>
<path d="M9.333 16.583v14.5h-0.333v-14.5h0.333z"></path>
</symbol>
<symbol id="icon-BLOG" viewBox="0 0 9 32">
<title>BLOG</title>
<path d="M0.145 28.32c0-0.878 0.191-1.569 0.572-2.074s0.909-0.757 1.582-0.757c0.492 0 0.909 0.14 1.249 0.418s0.568 0.66 0.683 1.145c0.090-0.599 0.33-1.069 0.72-1.409s0.876-0.511 1.458-0.511c0.738 0 1.315 0.277 1.729 0.831s0.622 1.319 0.622 2.295v3.742h-8.615v-3.68zM3.8 28.382c0-0.533-0.113-0.946-0.338-1.237s-0.548-0.437-0.966-0.437c-0.41 0-0.726 0.146-0.948 0.437s-0.328 0.704-0.32 1.237v2.437h2.572v-2.437zM7.677 28.382c0.008-0.64-0.113-1.14-0.363-1.502s-0.601-0.542-1.052-0.542c-0.435 0-0.775 0.18-1.022 0.542s-0.369 0.862-0.369 1.502v2.437h2.806v-2.437zM0.145 23.237v-1.182h7.545v-3.766h1.071v4.948h-8.615zM0.071 13.022c0-0.829 0.193-1.59 0.578-2.283s0.913-1.241 1.582-1.643c0.669-0.402 1.405-0.603 2.209-0.603s1.545 0.201 2.222 0.603c0.677 0.402 1.21 0.95 1.6 1.643s0.585 1.454 0.585 2.283c0 0.829-0.195 1.59-0.585 2.283s-0.923 1.241-1.6 1.643c-0.677 0.402-1.417 0.603-2.222 0.603s-1.54-0.201-2.209-0.603c-0.669-0.402-1.196-0.948-1.582-1.637s-0.578-1.452-0.578-2.289zM1.129 13.009c0 0.599 0.148 1.155 0.443 1.668s0.695 0.921 1.2 1.225c0.505 0.304 1.061 0.455 1.668 0.455s1.165-0.152 1.674-0.455c0.509-0.304 0.913-0.712 1.212-1.225s0.449-1.069 0.449-1.668c0-0.599-0.15-1.151-0.449-1.655s-0.704-0.907-1.212-1.206c-0.509-0.3-1.067-0.449-1.674-0.449s-1.163 0.15-1.668 0.449c-0.505 0.3-0.905 0.702-1.2 1.206s-0.443 1.056-0.443 1.655zM4.551 1.108v-1.046h3.163c0.345 0.435 0.62 0.944 0.825 1.526s0.308 1.161 0.308 1.735c0 0.829-0.195 1.588-0.585 2.277s-0.923 1.233-1.6 1.631c-0.677 0.398-1.417 0.597-2.222 0.597s-1.54-0.201-2.209-0.603c-0.669-0.402-1.196-0.952-1.582-1.649s-0.578-1.469-0.578-2.314c0-0.599 0.107-1.184 0.32-1.754s0.505-1.065 0.874-1.483l0.862 0.677c-0.32 0.345-0.568 0.74-0.745 1.188s-0.265 0.905-0.265 1.372c0 0.615 0.148 1.182 0.443 1.698s0.697 0.925 1.206 1.225c0.509 0.3 1.067 0.449 1.674 0.449s1.167-0.152 1.68-0.455c0.513-0.304 0.919-0.714 1.218-1.231s0.449-1.083 0.449-1.698c0-0.361-0.059-0.728-0.178-1.102s-0.285-0.72-0.498-1.040h-2.56z"></path>
</symbol>
<symbol id="icon-BODY-_-FACE" viewBox="0 0 12 32">
<title>BODY-_-FACE</title>
<path d="M0.076 30.059c0-0.463 0.101-0.828 0.302-1.094s0.479-0.399 0.834-0.399c0.26 0 0.479 0.074 0.659 0.221s0.3 0.348 0.36 0.604c0.048-0.316 0.174-0.564 0.38-0.743s0.462-0.269 0.769-0.269c0.389 0 0.694 0.146 0.912 0.438s0.328 0.696 0.328 1.211v1.973h-4.544v-1.941zM2.004 30.091c0-0.281-0.059-0.499-0.179-0.652s-0.289-0.23-0.51-0.23c-0.216 0-0.383 0.077-0.5 0.23s-0.173 0.371-0.169 0.652v1.285h1.357v-1.285zM4.049 30.091c0.004-0.338-0.059-0.602-0.192-0.792s-0.317-0.286-0.555-0.286c-0.229 0-0.409 0.095-0.539 0.286s-0.195 0.454-0.195 0.792v1.285h1.48v-1.285zM0.037 25.392c0-0.437 0.102-0.838 0.305-1.204s0.481-0.655 0.834-0.867c0.353-0.212 0.741-0.318 1.165-0.318s0.815 0.106 1.172 0.318c0.357 0.212 0.638 0.501 0.844 0.867s0.308 0.767 0.308 1.204c0 0.437-0.103 0.838-0.308 1.204s-0.487 0.655-0.844 0.867c-0.357 0.212-0.748 0.318-1.172 0.318s-0.813-0.106-1.165-0.318c-0.353-0.212-0.631-0.5-0.834-0.863s-0.305-0.766-0.305-1.207zM0.596 25.385c0 0.316 0.078 0.609 0.234 0.88s0.367 0.486 0.633 0.646c0.266 0.16 0.559 0.24 0.88 0.24s0.615-0.080 0.883-0.24c0.268-0.16 0.481-0.375 0.639-0.646s0.237-0.564 0.237-0.88c0-0.316-0.079-0.607-0.237-0.873s-0.371-0.478-0.639-0.636c-0.268-0.158-0.563-0.237-0.883-0.237s-0.613 0.079-0.88 0.237c-0.266 0.158-0.477 0.37-0.633 0.636s-0.234 0.557-0.234 0.873zM0.076 20.257c0-0.441 0.098-0.841 0.295-1.198s0.468-0.637 0.815-0.841c0.346-0.203 0.734-0.305 1.162-0.305s0.816 0.103 1.162 0.308c0.346 0.206 0.618 0.488 0.815 0.847s0.295 0.762 0.295 1.207v1.831h-4.544v-1.85zM4.056 20.244c0-0.316-0.074-0.603-0.221-0.86s-0.351-0.461-0.61-0.61c-0.26-0.149-0.55-0.224-0.87-0.224-0.325 0-0.617 0.076-0.876 0.227s-0.464 0.358-0.613 0.62c-0.149 0.262-0.224 0.553-0.224 0.873v1.214h3.415v-1.24zM0.076 13.629l2.986 1.701h1.558v0.623h-1.532l-3.012 1.727v-0.636l2.318-1.402-2.318-1.376v-0.636zM4.718 8.020l-0.727 0.74c0.212 0.203 0.374 0.423 0.487 0.659s0.169 0.479 0.169 0.73c0 0.255-0.054 0.489-0.162 0.701s-0.259 0.38-0.451 0.503c-0.193 0.123-0.408 0.185-0.646 0.185-0.294 0-0.538-0.090-0.73-0.269s-0.373-0.427-0.542-0.743c-0.203 0.156-0.391 0.271-0.562 0.344s-0.339 0.11-0.503 0.11c-0.294 0-0.534-0.106-0.721-0.318s-0.279-0.487-0.279-0.824c0-0.325 0.087-0.589 0.26-0.792s0.396-0.305 0.669-0.305c0.195 0 0.367 0.051 0.516 0.153s0.277 0.229 0.383 0.383c0.106 0.154 0.22 0.347 0.341 0.581 0.251-0.216 0.615-0.565 1.091-1.045-0.264-0.173-0.55-0.318-0.857-0.435l0.299-0.402c0.32 0.134 0.619 0.299 0.896 0.493l0.747-0.766 0.325 0.318zM1.044 10.487c0.238 0 0.526-0.123 0.863-0.37-0.151-0.29-0.294-0.51-0.428-0.659s-0.299-0.224-0.493-0.224c-0.164 0-0.296 0.054-0.396 0.162s-0.149 0.253-0.149 0.435c0 0.199 0.057 0.358 0.172 0.477s0.259 0.179 0.432 0.179zM4.179 10.13c0-0.359-0.173-0.705-0.519-1.039-0.506 0.511-0.915 0.902-1.227 1.175 0.134 0.242 0.273 0.43 0.415 0.562s0.309 0.198 0.5 0.198c0.242 0 0.441-0.087 0.597-0.26s0.234-0.385 0.234-0.636z"></path>
<path d="M7.675 15.924v-2.96l0.565 0.007v2.331h1.493v-2.097h0.565v2.097h1.922v0.623h-4.544zM12.22 9.030l-1.104 0.48v2.395l1.104 0.474v0.656l-4.544-2.019v-0.649l4.544-2.012v0.675zM10.551 11.659v-1.909l-2.207 0.961 2.207 0.948zM8.766 4.511c-0.182 0.173-0.323 0.374-0.425 0.604s-0.153 0.465-0.153 0.708c0 0.32 0.078 0.615 0.234 0.883s0.367 0.48 0.633 0.636c0.266 0.156 0.559 0.234 0.88 0.234 0.316 0 0.608-0.078 0.876-0.234s0.48-0.368 0.636-0.636c0.156-0.268 0.234-0.563 0.234-0.883 0-0.238-0.049-0.472-0.146-0.701s-0.23-0.433-0.399-0.61l0.409-0.377c0.225 0.229 0.401 0.496 0.529 0.798s0.191 0.61 0.191 0.922c0 0.433-0.103 0.829-0.308 1.188s-0.486 0.643-0.841 0.85c-0.355 0.208-0.747 0.312-1.175 0.312-0.424 0-0.813-0.105-1.165-0.315s-0.631-0.497-0.834-0.86c-0.203-0.364-0.305-0.764-0.305-1.201 0-0.316 0.059-0.622 0.179-0.919s0.287-0.553 0.503-0.769l0.448 0.37zM7.675 3.265v-3.155h0.565v2.532h1.402v-2.266h0.565v2.266h1.448v-2.61h0.565v3.233h-4.544z"></path>
<path d="M8.936 18.558v13.289h-0.306v-13.289h0.306z"></path>
</symbol>
<symbol id="icon-EVENTS" viewBox="0 0 17 32">
<title>EVENTS</title>
<path d="M0 32v-4.451h0.797v3.572h1.978v-3.196h0.797v3.196h2.042v-3.682h0.797v4.561h-6.411zM0 26.89v-0.943l5.431-2.116-5.431-2.116v-0.925l6.411 2.601v0.916l-6.411 2.583zM0 19.829v-4.451h0.797v3.572h1.978v-3.196h0.797v3.196h2.042v-3.682h0.797v4.561h-6.411z"></path>
<path d="M9.966 12.193v-0.87h6.411v0.888l-4.964 3.663h4.964v0.879h-6.411v-0.888l4.973-3.672h-4.973zM9.966 10.307v-5.010h0.806v2.070h5.605v0.879h-5.605v2.061h-0.806zM11.303 0.544c-0.189 0.299-0.331 0.609-0.426 0.93s-0.142 0.615-0.142 0.884c0 0.372 0.072 0.67 0.215 0.893s0.34 0.334 0.591 0.334c0.226 0 0.411-0.067 0.554-0.201s0.256-0.299 0.339-0.495c0.082-0.195 0.179-0.467 0.289-0.815 0.134-0.433 0.263-0.785 0.385-1.053s0.304-0.498 0.545-0.687c0.241-0.189 0.56-0.284 0.957-0.284 0.366 0 0.687 0.099 0.962 0.298s0.487 0.476 0.637 0.833c0.15 0.357 0.224 0.768 0.224 1.232 0 0.47-0.092 0.928-0.275 1.374s-0.427 0.83-0.733 1.154l-0.76-0.394c0.299-0.305 0.53-0.649 0.691-1.030s0.243-0.752 0.243-1.113c0-0.427-0.084-0.765-0.252-1.012s-0.395-0.371-0.682-0.371c-0.226 0-0.412 0.067-0.559 0.201s-0.263 0.304-0.348 0.508c-0.085 0.205-0.18 0.481-0.284 0.829-0.128 0.427-0.253 0.775-0.376 1.044s-0.302 0.496-0.54 0.682c-0.238 0.186-0.553 0.279-0.943 0.279-0.342 0-0.644-0.095-0.907-0.284s-0.464-0.455-0.604-0.797c-0.14-0.342-0.211-0.739-0.211-1.191 0-0.385 0.056-0.762 0.169-1.131s0.264-0.698 0.453-0.985l0.788 0.366z"></path>
<path d="M13.684 20.471v11.313h-0.431v-11.313h0.431z"></path>
</symbol>
<symbol id="icon-OUR-TEAM" viewBox="0 0 14 32">
<title>OUR-TEAM</title>
<path d="M0.042 29.239c0-0.494 0.115-0.947 0.345-1.36s0.544-0.739 0.942-0.979c0.398-0.239 0.837-0.359 1.316-0.359s0.92 0.12 1.323 0.359c0.403 0.239 0.721 0.566 0.953 0.979s0.348 0.866 0.348 1.36c0 0.494-0.116 0.947-0.348 1.36s-0.55 0.739-0.953 0.979c-0.403 0.239-0.844 0.359-1.323 0.359s-0.918-0.12-1.316-0.359c-0.398-0.239-0.712-0.565-0.942-0.975s-0.345-0.865-0.345-1.364zM0.673 29.232c0 0.357 0.088 0.688 0.264 0.993s0.414 0.549 0.715 0.73c0.301 0.181 0.632 0.271 0.993 0.271s0.694-0.090 0.997-0.271c0.303-0.181 0.544-0.424 0.722-0.73s0.268-0.637 0.268-0.993c0-0.357-0.089-0.686-0.268-0.986s-0.419-0.54-0.722-0.718c-0.303-0.178-0.635-0.268-0.997-0.268s-0.693 0.089-0.993 0.268c-0.301 0.178-0.539 0.418-0.715 0.718s-0.264 0.629-0.264 0.986zM3.122 24.935c0.474 0 0.844-0.131 1.111-0.392s0.4-0.622 0.4-1.081c0-0.455-0.133-0.811-0.4-1.070s-0.637-0.389-1.111-0.389h-3.035v-0.704h3.035c0.67 0 1.195 0.192 1.576 0.576s0.572 0.913 0.572 1.587c0 0.679-0.191 1.212-0.572 1.598s-0.907 0.579-1.576 0.579h-3.035v-0.704h3.035zM5.218 16.629l-1.613 1.019c0.010 0.117 0.015 0.213 0.015 0.286v1.305h1.598v0.704h-5.132v-2.009c0-0.65 0.15-1.152 0.451-1.507s0.727-0.532 1.279-0.532c0.415 0 0.765 0.097 1.048 0.29s0.489 0.47 0.616 0.832l1.738-1.195v0.806zM2.982 17.934c0-0.44-0.097-0.777-0.29-1.012s-0.478-0.352-0.854-0.352c-0.367 0-0.644 0.117-0.832 0.352s-0.282 0.572-0.282 1.012v1.305h2.258v-1.305z"></path>
<path d="M8.798 20.412v-4.010h0.645v1.657h4.487v0.704h-4.487v1.65h-0.645zM8.798 15.595v-3.563h0.638v2.859h1.584v-2.559h0.638v2.559h1.635v-2.947h0.638v3.651h-5.132zM13.93 6.995l-1.246 0.543v2.705l1.246 0.535v0.741l-5.132-2.28v-0.733l5.132-2.273v0.762zM12.046 9.964v-2.155l-2.493 1.085 2.493 1.070zM8.798 5.485v-0.836l3.607-1.877-3.607-1.862v-0.843h5.132v0.66l-4.098 0.007 3.556 1.826v0.433l-3.556 1.84h4.098v0.652h-5.132z"></path>
<path d="M10.782 22.771h0.345v8.625h-0.345v-8.625z"></path>
</symbol>
<symbol id="icon-TWO-TONED-CONTACT" viewBox="0 0 227 32">
<title>TWO-TONED-CONTACT</title>
<path fill="#000" style="fill: var(--color1, #000)" d="M25.492 7.753c-1.189-1.249-2.571-2.222-4.147-2.921s-3.196-1.048-4.86-1.048c-2.2 0-4.221 0.535-6.064 1.605s-3.3 2.519-4.37 4.348c-1.070 1.828-1.605 3.842-1.605 6.042 0 2.17 0.535 4.177 1.605 6.020s2.527 3.3 4.37 4.37c1.843 1.070 3.864 1.605 6.064 1.605 1.635 0 3.24-0.334 4.816-1.003s2.973-1.583 4.191-2.742l2.586 2.809c-1.576 1.546-3.404 2.757-5.485 3.634s-4.191 1.315-6.332 1.315c-2.973 0-5.693-0.706-8.16-2.118s-4.414-3.337-5.841-5.774c-1.427-2.438-2.14-5.128-2.14-8.071 0-2.913 0.721-5.581 2.163-8.004s3.411-4.333 5.908-5.73c2.497-1.397 5.247-2.096 8.249-2.096 2.17 0 4.273 0.409 6.309 1.226s3.798 1.969 5.284 3.456l-2.542 3.077zM46.985-0.005c3.002 0 5.76 0.699 8.271 2.096s4.496 3.307 5.953 5.73c1.457 2.423 2.185 5.091 2.185 8.004s-0.728 5.596-2.185 8.049c-1.457 2.452-3.441 4.385-5.953 5.797s-5.269 2.118-8.271 2.118c-3.002 0-5.76-0.706-8.271-2.118s-4.496-3.344-5.953-5.797c-1.457-2.452-2.185-5.135-2.185-8.049s0.728-5.581 2.185-8.004c1.457-2.423 3.433-4.333 5.931-5.73s5.262-2.096 8.294-2.096zM47.029 3.829c-2.17 0-4.184 0.535-6.042 1.605s-3.337 2.519-4.437 4.348c-1.1 1.828-1.65 3.842-1.65 6.042s0.55 4.221 1.65 6.064c1.1 1.843 2.579 3.307 4.437 4.392s3.872 1.628 6.042 1.628c2.17 0 4.169-0.543 5.997-1.628s3.285-2.549 4.37-4.392c1.085-1.843 1.628-3.864 1.628-6.064s-0.542-4.214-1.628-6.042c-1.085-1.828-2.542-3.277-4.37-4.348s-3.827-1.605-5.997-1.605z"></path>
<path fill="#fff" style="fill: var(--color2, #fff)" d="M25.492 7.753c-1.189-1.249-2.571-2.222-4.147-2.921s-3.196-1.048-4.86-1.048c-2.2 0-4.221 0.535-6.064 1.605s-3.3 2.519-4.37 4.348c-1.070 1.828-1.605 3.842-1.605 6.042 0 2.17 0.535 4.177 1.605 6.020s2.527 3.3 4.37 4.37c1.843 1.070 3.864 1.605 6.064 1.605 1.635 0 3.24-0.334 4.816-1.003s2.973-1.583 4.191-2.742l2.586 2.809c-1.576 1.546-3.404 2.757-5.485 3.634s-4.191 1.315-6.332 1.315c-2.973 0-5.693-0.706-8.16-2.118s-4.414-3.337-5.841-5.774c-1.427-2.438-2.14-5.128-2.14-8.071 0-2.913 0.721-5.581 2.163-8.004s3.411-4.333 5.908-5.73c2.497-1.397 5.247-2.096 8.249-2.096 2.17 0 4.273 0.409 6.309 1.226s3.798 1.969 5.284 3.456l-2.542 3.077zM46.985-0.005c3.002 0 5.76 0.699 8.271 2.096s4.496 3.307 5.953 5.73c1.457 2.423 2.185 5.091 2.185 8.004s-0.728 5.596-2.185 8.049c-1.457 2.452-3.441 4.385-5.953 5.797s-5.269 2.118-8.271 2.118c-3.002 0-5.76-0.706-8.271-2.118s-4.496-3.344-5.953-5.797c-1.457-2.452-2.185-5.135-2.185-8.049s0.728-5.581 2.185-8.004c1.457-2.423 3.433-4.333 5.931-5.73s5.262-2.096 8.294-2.096zM47.029 3.829c-2.17 0-4.184 0.535-6.042 1.605s-3.337 2.519-4.437 4.348c-1.1 1.828-1.65 3.842-1.65 6.042s0.55 4.221 1.65 6.064c1.1 1.843 2.579 3.307 4.437 4.392s3.872 1.628 6.042 1.628c2.17 0 4.169-0.543 5.997-1.628s3.285-2.549 4.37-4.392c1.085-1.843 1.628-3.864 1.628-6.064s-0.542-4.214-1.628-6.042c-1.085-1.828-2.542-3.277-4.37-4.348s-3.827-1.605-5.997-1.605z"></path>
<path fill="#000" style="fill: var(--color1, #000)" d="M105.264 0.262h4.236v31.213h-4.325l-17.836-24.168v24.168h-4.281v-31.213h4.325l17.881 24.212z"></path>
<path fill="#000" style="fill: var(--color1, #000)" d="M117.43 0.262h24.391v3.924h-10.077v27.289h-4.281v-27.289h-10.033v-3.924zM166.925 31.475l-3.3-7.58h-16.454l-3.255 7.58h-4.504l13.868-31.213h4.459l13.823 31.213h-4.637zM148.866 20.016h13.109l-6.599-15.161-6.51 15.161zM197.959 7.753c-1.189-1.249-2.571-2.222-4.147-2.921s-3.196-1.048-4.86-1.048c-2.2 0-4.221 0.535-6.064 1.605s-3.3 2.519-4.37 4.348c-1.070 1.828-1.605 3.842-1.605 6.042 0 2.17 0.535 4.177 1.605 6.020s2.527 3.3 4.37 4.37c1.843 1.070 3.864 1.605 6.064 1.605 1.635 0 3.24-0.334 4.816-1.003s2.973-1.583 4.191-2.742l2.586 2.809c-1.576 1.546-3.404 2.757-5.485 3.634s-4.191 1.315-6.332 1.315c-2.973 0-5.693-0.706-8.16-2.118s-4.414-3.337-5.841-5.774c-1.427-2.438-2.14-5.128-2.14-8.071 0-2.913 0.721-5.581 2.163-8.004s3.411-4.333 5.908-5.73c2.497-1.397 5.247-2.096 8.249-2.096 2.17 0 4.273 0.409 6.31 1.226s3.798 1.969 5.284 3.456l-2.542 3.077zM202.508 0.262h24.391v3.924h-10.077v27.289h-4.281v-27.289h-10.033v-3.924z"></path>
</symbol>
<symbol id="icon-contact-w" viewBox="0 0 227 32">
<title>CONTACT (White)</title>
<path d="M25.492 7.753c-1.189-1.249-2.571-2.222-4.147-2.921s-3.196-1.048-4.86-1.048c-2.2 0-4.221 0.535-6.064 1.605s-3.3 2.519-4.37 4.348c-1.070 1.828-1.605 3.842-1.605 6.042 0 2.17 0.535 4.177 1.605 6.020s2.527 3.3 4.37 4.37c1.843 1.070 3.864 1.605 6.064 1.605 1.635 0 3.24-0.334 4.816-1.003s2.973-1.583 4.191-2.742l2.586 2.809c-1.576 1.546-3.404 2.757-5.485 3.634s-4.191 1.315-6.332 1.315c-2.973 0-5.693-0.706-8.16-2.118s-4.414-3.337-5.841-5.774c-1.427-2.438-2.14-5.128-2.14-8.071 0-2.913 0.721-5.581 2.163-8.004s3.411-4.333 5.908-5.73c2.497-1.397 5.247-2.096 8.249-2.096 2.17 0 4.273 0.409 6.309 1.226s3.798 1.969 5.284 3.456l-2.542 3.077zM46.985-0.005c3.002 0 5.76 0.699 8.271 2.096s4.496 3.307 5.953 5.73c1.457 2.423 2.185 5.091 2.185 8.004s-0.728 5.596-2.185 8.049c-1.457 2.452-3.441 4.385-5.953 5.797s-5.269 2.118-8.271 2.118c-3.002 0-5.76-0.706-8.271-2.118s-4.496-3.344-5.953-5.797c-1.457-2.452-2.185-5.135-2.185-8.049s0.728-5.581 2.185-8.004c1.457-2.423 3.433-4.333 5.931-5.73s5.262-2.096 8.294-2.096zM47.029 3.829c-2.17 0-4.184 0.535-6.042 1.605s-3.337 2.519-4.437 4.348c-1.1 1.828-1.65 3.842-1.65 6.042s0.55 4.221 1.65 6.064c1.1 1.843 2.579 3.307 4.437 4.392s3.872 1.628 6.042 1.628c2.17 0 4.169-0.543 5.997-1.628s3.285-2.549 4.37-4.392c1.085-1.843 1.628-3.864 1.628-6.064s-0.542-4.214-1.628-6.042c-1.085-1.828-2.542-3.277-4.37-4.348s-3.827-1.605-5.997-1.605z"></path>
<path d="M25.492 7.753c-1.189-1.249-2.571-2.222-4.147-2.921s-3.196-1.048-4.86-1.048c-2.2 0-4.221 0.535-6.064 1.605s-3.3 2.519-4.37 4.348c-1.070 1.828-1.605 3.842-1.605 6.042 0 2.17 0.535 4.177 1.605 6.020s2.527 3.3 4.37 4.37c1.843 1.070 3.864 1.605 6.064 1.605 1.635 0 3.24-0.334 4.816-1.003s2.973-1.583 4.191-2.742l2.586 2.809c-1.576 1.546-3.404 2.757-5.485 3.634s-4.191 1.315-6.332 1.315c-2.973 0-5.693-0.706-8.16-2.118s-4.414-3.337-5.841-5.774c-1.427-2.438-2.14-5.128-2.14-8.071 0-2.913 0.721-5.581 2.163-8.004s3.411-4.333 5.908-5.73c2.497-1.397 5.247-2.096 8.249-2.096 2.17 0 4.273 0.409 6.309 1.226s3.798 1.969 5.284 3.456l-2.542 3.077zM46.985-0.005c3.002 0 5.76 0.699 8.271 2.096s4.496 3.307 5.953 5.73c1.457 2.423 2.185 5.091 2.185 8.004s-0.728 5.596-2.185 8.049c-1.457 2.452-3.441 4.385-5.953 5.797s-5.269 2.118-8.271 2.118c-3.002 0-5.76-0.706-8.271-2.118s-4.496-3.344-5.953-5.797c-1.457-2.452-2.185-5.135-2.185-8.049s0.728-5.581 2.185-8.004c1.457-2.423 3.433-4.333 5.931-5.73s5.262-2.096 8.294-2.096zM47.029 3.829c-2.17 0-4.184 0.535-6.042 1.605s-3.337 2.519-4.437 4.348c-1.1 1.828-1.65 3.842-1.65 6.042s0.55 4.221 1.65 6.064c1.1 1.843 2.579 3.307 4.437 4.392s3.872 1.628 6.042 1.628c2.17 0 4.169-0.543 5.997-1.628s3.285-2.549 4.37-4.392c1.085-1.843 1.628-3.864 1.628-6.064s-0.542-4.214-1.628-6.042c-1.085-1.828-2.542-3.277-4.37-4.348s-3.827-1.605-5.997-1.605z"></path>
<path d="M105.264 0.262h4.236v31.213h-4.325l-17.836-24.168v24.168h-4.281v-31.213h4.325l17.881 24.212z"></path>
<path d="M117.43 0.262h24.391v3.924h-10.077v27.289h-4.281v-27.289h-10.033v-3.924zM166.925 31.475l-3.3-7.58h-16.454l-3.255 7.58h-4.504l13.868-31.213h4.459l13.823 31.213h-4.637zM148.866 20.016h13.109l-6.599-15.161-6.51 15.161zM197.959 7.753c-1.189-1.249-2.571-2.222-4.147-2.921s-3.196-1.048-4.86-1.048c-2.2 0-4.221 0.535-6.064 1.605s-3.3 2.519-4.37 4.348c-1.070 1.828-1.605 3.842-1.605 6.042 0 2.17 0.535 4.177 1.605 6.020s2.527 3.3 4.37 4.37c1.843 1.070 3.864 1.605 6.064 1.605 1.635 0 3.24-0.334 4.816-1.003s2.973-1.583 4.191-2.742l2.586 2.809c-1.576 1.546-3.404 2.757-5.485 3.634s-4.191 1.315-6.332 1.315c-2.973 0-5.693-0.706-8.16-2.118s-4.414-3.337-5.841-5.774c-1.427-2.438-2.14-5.128-2.14-8.071 0-2.913 0.721-5.581 2.163-8.004s3.411-4.333 5.908-5.73c2.497-1.397 5.247-2.096 8.249-2.096 2.17 0 4.273 0.409 6.31 1.226s3.798 1.969 5.284 3.456l-2.542 3.077zM202.508 0.262h24.391v3.924h-10.077v27.289h-4.281v-27.289h-10.033v-3.924z"></path>
</symbol>
<symbol id="icon-PRODUCTS" viewBox="0 0 13 32">
<title>PRODUCTS</title>
<path d="M0.042 30.041c0-0.62 0.147-1.1 0.44-1.438s0.705-0.508 1.236-0.508c0.554 0 0.984 0.17 1.289 0.511s0.458 0.819 0.458 1.435v1.236h1.548v0.682h-4.971v-1.918zM2.847 30.069c0-0.426-0.094-0.753-0.281-0.98s-0.463-0.341-0.827-0.341c-0.355 0-0.624 0.114-0.806 0.341s-0.273 0.554-0.273 0.98l0.007 1.207h2.18v-1.207zM5.013 23.983l-1.562 0.987c0.009 0.114 0.014 0.206 0.014 0.277v1.264h1.548v0.682h-4.971v-1.946c0-0.63 0.146-1.116 0.437-1.459s0.704-0.515 1.239-0.515c0.402 0 0.741 0.093 1.016 0.281s0.473 0.456 0.597 0.806l1.683-1.158v0.781zM2.847 25.247c0-0.426-0.094-0.753-0.281-0.98s-0.463-0.341-0.827-0.341c-0.355 0-0.624 0.114-0.806 0.341s-0.273 0.554-0.273 0.98v1.264h2.187v-1.264zM-0.001 19.885c0-0.478 0.111-0.917 0.334-1.317s0.527-0.716 0.913-0.948c0.386-0.232 0.811-0.348 1.275-0.348s0.891 0.116 1.282 0.348c0.391 0.232 0.698 0.548 0.923 0.948s0.337 0.839 0.337 1.317c0 0.478-0.112 0.917-0.337 1.317s-0.533 0.716-0.923 0.948c-0.391 0.232-0.818 0.348-1.282 0.348s-0.889-0.116-1.275-0.348c-0.386-0.232-0.69-0.547-0.913-0.945s-0.334-0.838-0.334-1.321zM0.61 19.878c0 0.346 0.085 0.666 0.256 0.962s0.401 0.531 0.692 0.707c0.291 0.175 0.612 0.263 0.962 0.263s0.672-0.088 0.966-0.263c0.294-0.175 0.527-0.411 0.7-0.707s0.259-0.617 0.259-0.962c0-0.346-0.086-0.664-0.259-0.955s-0.406-0.523-0.7-0.696c-0.294-0.173-0.615-0.259-0.966-0.259s-0.671 0.086-0.962 0.259c-0.291 0.173-0.522 0.405-0.692 0.696s-0.256 0.61-0.256 0.955zM0.042 14.268c0-0.483 0.108-0.92 0.323-1.31s0.512-0.697 0.891-0.92c0.379-0.223 0.802-0.334 1.271-0.334s0.892 0.112 1.271 0.337c0.379 0.225 0.676 0.534 0.891 0.927s0.323 0.833 0.323 1.321v2.003h-4.971v-2.024zM4.395 14.253c0-0.346-0.080-0.659-0.241-0.941s-0.384-0.504-0.668-0.668c-0.284-0.163-0.601-0.245-0.952-0.245-0.355 0-0.675 0.083-0.959 0.249s-0.508 0.392-0.671 0.678c-0.163 0.286-0.245 0.605-0.245 0.955v1.328h3.736v-1.356z"></path>
<path d="M10.543 17.138c0.459 0 0.818-0.127 1.076-0.38s0.387-0.602 0.387-1.048c0-0.44-0.129-0.786-0.387-1.037s-0.617-0.376-1.076-0.376h-2.94v-0.682h2.94c0.649 0 1.158 0.186 1.527 0.557s0.554 0.884 0.554 1.538c0 0.658-0.185 1.174-0.554 1.548s-0.878 0.561-1.527 0.561h-2.94v-0.682h2.94zM8.796 8.701c-0.199 0.189-0.354 0.41-0.465 0.66s-0.167 0.509-0.167 0.774c0 0.35 0.085 0.672 0.256 0.966s0.401 0.526 0.692 0.696c0.291 0.17 0.612 0.256 0.962 0.256 0.346 0 0.665-0.085 0.959-0.256s0.526-0.402 0.696-0.696c0.17-0.294 0.256-0.616 0.256-0.966 0-0.26-0.053-0.516-0.16-0.767s-0.252-0.473-0.437-0.668l0.447-0.412c0.246 0.251 0.439 0.542 0.579 0.874s0.21 0.668 0.21 1.008c0 0.473-0.112 0.907-0.337 1.3s-0.531 0.703-0.92 0.93c-0.388 0.227-0.817 0.341-1.285 0.341-0.464 0-0.889-0.115-1.275-0.344s-0.69-0.543-0.913-0.941c-0.223-0.398-0.334-0.836-0.334-1.314 0-0.346 0.065-0.681 0.195-1.005s0.314-0.605 0.55-0.842l0.49 0.405zM7.603 7.976v-3.885h0.625v1.605h4.346v0.682h-4.346v1.598h-0.625zM8.64 0.406c-0.147 0.232-0.257 0.472-0.33 0.721s-0.11 0.477-0.11 0.685c0 0.289 0.056 0.52 0.167 0.692s0.264 0.259 0.458 0.259c0.175 0 0.318-0.052 0.43-0.156s0.199-0.232 0.263-0.384c0.064-0.151 0.139-0.362 0.224-0.632 0.104-0.336 0.204-0.608 0.298-0.817s0.236-0.386 0.423-0.533c0.187-0.147 0.434-0.22 0.742-0.22 0.284 0 0.533 0.077 0.746 0.231s0.378 0.369 0.494 0.646c0.116 0.277 0.174 0.595 0.174 0.955 0 0.365-0.071 0.72-0.213 1.065s-0.331 0.644-0.568 0.895l-0.589-0.305c0.232-0.237 0.411-0.503 0.536-0.799s0.188-0.584 0.188-0.863c0-0.331-0.065-0.593-0.195-0.785s-0.307-0.288-0.529-0.288c-0.175 0-0.32 0.052-0.433 0.156s-0.204 0.236-0.27 0.394c-0.066 0.159-0.14 0.373-0.22 0.643-0.099 0.331-0.196 0.601-0.291 0.81s-0.234 0.385-0.419 0.529c-0.185 0.144-0.428 0.217-0.732 0.217-0.265 0-0.499-0.073-0.703-0.22s-0.36-0.353-0.469-0.618c-0.109-0.265-0.163-0.573-0.163-0.923 0-0.298 0.044-0.591 0.131-0.877s0.205-0.541 0.352-0.763l0.611 0.284z"></path>
<path d="M9.692 20.637v11.196h-0.334v-11.196h0.334z"></path>
</symbol>
<symbol id="icon-REJUVE-NATE" viewBox="0 0 11 32">
<title>REJUVE-NATE</title>
<path d="M4.469 29.114l-1.405 0.887c0.009 0.102 0.013 0.185 0.013 0.249v1.137h1.392v0.613h-4.469v-1.749c0-0.566 0.131-1.003 0.393-1.312s0.633-0.463 1.114-0.463c0.362 0 0.666 0.084 0.913 0.252s0.426 0.41 0.536 0.725l1.513-1.041v0.702zM2.522 30.251c0-0.383-0.084-0.677-0.252-0.881s-0.416-0.306-0.744-0.306c-0.319 0-0.561 0.102-0.725 0.306s-0.246 0.498-0.246 0.881v1.137h1.967v-1.137zM0 27.384v-3.103h0.555v2.49h1.379v-2.228h0.555v2.228h1.424v-2.567h0.555v3.18h-4.469zM3.116 21.26c0.438 0 0.778 0.117 1.018 0.351s0.361 0.56 0.361 0.977c0 0.251-0.055 0.485-0.166 0.702s-0.268 0.407-0.473 0.568l-0.473-0.3c0.166-0.14 0.293-0.295 0.38-0.463s0.131-0.335 0.131-0.501c0-0.23-0.069-0.407-0.208-0.53s-0.335-0.185-0.591-0.185h-2.535v1.577h-0.562v-2.196h3.116zM2.643 19.568c0.413 0 0.735-0.114 0.967-0.342s0.348-0.542 0.348-0.942c0-0.396-0.116-0.707-0.348-0.932s-0.554-0.338-0.967-0.338h-2.643v-0.613h2.643c0.583 0 1.041 0.167 1.373 0.501s0.498 0.795 0.498 1.382c0 0.592-0.166 1.056-0.498 1.392s-0.79 0.504-1.373 0.504h-2.643v-0.613h2.643zM0 15.827v-0.658l3.786-1.475-3.786-1.475v-0.645l4.469 1.813v0.639l-4.469 1.801zM0 10.904v-3.103h0.555v2.49h1.379v-2.228h0.555v2.228h1.424v-2.567h0.555v3.18h-4.469z"></path>
<path d="M6.685 12.971v-0.607h4.469v0.619l-3.461 2.554h3.461v0.613h-4.469v-0.619l3.467-2.56h-3.467zM11.155 7.76l-1.085 0.473v2.356l1.085 0.466v0.645l-4.469-1.986v-0.639l4.469-1.979v0.664zM9.514 10.346v-1.877l-2.171 0.945 2.171 0.932zM6.685 7.447v-3.493h0.562v1.443h3.908v0.613h-3.908v1.437h-0.562zM6.685 3.253v-3.103h0.556v2.49h1.379v-2.228h0.556v2.228h1.424v-2.567h0.556v3.18h-4.469z"></path>
<path d="M8.789 18.779v13.070h-0.3v-13.070h0.3z"></path>
</symbol>

<!-- Logos -->
<symbol id="icon-CP-Logo" viewBox="0 0 26 32">
<title>CP-Logo</title>
<path d="M11.188 4.425c0.395-0.718 0.401-2.733-1.021-3.514-2.348-1.29-5.952 0.58-6.759 3.946-0.934 3.896 0.55 7.376 3.932 8.341 3.1 0.885 5.317-0.005 6.775-1.203 0.668-0.549 1.186-1.282 1.186-1.282l0.288 0.126c0 0-1.717 4.669-7.646 4.748-6.155 0.082-9.762-6.078-7.005-11.333s9.495-4.854 12.188-2.991c2.283 1.578 2.11 3.456 0.796 4.067-1.831 0.853-2.83-0.738-2.736-0.907z"></path>
<path d="M15.042 20.606c3.105 1.036 8.053 0.595 10.298-3.716 2.69-5.169-0.83-11.226-6.837-11.146-5.787 0.078-7.462 4.67-7.462 4.67l0.281 0.124c0 0 0.506-0.721 1.157-1.261 1.423-1.178 3.587-2.053 6.613-1.182 3.301 0.949 4.749 4.372 3.838 8.204-0.787 3.31-4.305 5.15-6.597 3.881-1.387-0.768-1.382-2.75-0.996-3.456 0.091-0.168-0.91-1.86-2.697-1.022-0.684 0.321-1.131 1.408-0.851 2.798 0.63 3.117 3.416 8.466-0.481 10.699-0.946 0.543-0.818 1.906 0.198 2.502 1.566 0.921 3.478-0.343 3.576-3.018 0.097-2.612-0.040-8.077-0.040-8.077z"></path>
</symbol>
<symbol id="icon-Footer-Logo-White" viewBox="0 0 73 32">
<title>Footer-Logo-White</title>
<path fill="#fff" style="fill: var(--color2, #fff)" d="M36.013 1.135c0.101-0.184 0.103-0.701-0.262-0.902-0.602-0.331-1.527 0.149-1.734 1.012-0.24 1 0.141 1.892 1.009 2.14 0.795 0.227 1.364-0.001 1.738-0.309 0.171-0.141 0.304-0.329 0.304-0.329l0.074 0.032c0 0-0.441 1.198-1.962 1.218-1.579 0.021-2.505-1.559-1.797-2.908s2.436-1.245 3.127-0.767c0.586 0.405 0.541 0.887 0.204 1.044-0.47 0.219-0.726-0.189-0.702-0.233z"></path>
<path fill="#fff" style="fill: var(--color2, #fff)" d="M36.837 5.31c0.797 0.271 2.066 0.155 2.642-0.97 0.69-1.35-0.213-2.932-1.754-2.911-1.485 0.020-1.915 1.22-1.915 1.22l0.072 0.033c0 0 0.13-0.188 0.297-0.329 0.365-0.308 0.92-0.536 1.697-0.309 0.847 0.248 1.219 1.142 0.985 2.142-0.202 0.865-1.105 1.345-1.693 1.014-0.356-0.201-0.354-0.718-0.255-0.902 0.023-0.044-0.233-0.486-0.692-0.267-0.176 0.084-0.29 0.368-0.218 0.731 0.161 0.814 0.876 2.211-0.123 2.794-0.243 0.142-0.21 0.498 0.051 0.654 0.402 0.241 0.892-0.090 0.918-0.788 0.025-0.682-0.010-2.109-0.010-2.109z"></path>
<path fill="#fff" style="fill: var(--color2, #fff)" d="M6.306 15.816h0.281l0.090 2.329h-0.371c-0.291-1.175-1.193-1.904-2.376-1.904-1.624 0-2.586 1.337-2.586 3.544 0 2.167 0.932 3.382 2.616 3.382 1.273 0 2.125-0.709 2.486-2.076h0.411v2.522h-0.351l-0.231-0.8c-0.712 0.607-1.554 0.901-2.546 0.901-2.266 0-3.729-1.509-3.729-3.868 0-2.451 1.564-4.132 3.84-4.132 0.802 0 1.464 0.213 2.286 0.729l0.18-0.628z"></path>
<path fill="#fff" style="fill: var(--color2, #fff)" d="M12.982 19.191c1.423 0 1.868-0.34 1.868-1.152h0.346v2.735h-0.346c0-0.802-0.385-1.172-1.868-1.182v2.264c0 0.872 0.395 1.142 1.641 1.142 1.393 0 1.888-0.36 2.145-1.543h0.376l-0.148 1.974h-6.137v-0.381c0.929-0.030 1.087-0.2 1.087-1.142v-4.669c0-0.932-0.138-1.102-0.988-1.142v-0.381h5.713l0.089 1.763h-0.346c-0.158-1.062-0.662-1.333-2.006-1.333h-1.255c-0.109 0-0.168 0.070-0.168 0.17v2.875z"></path>
<path fill="#fff" style="fill: var(--color2, #fff)" d="M27.994 23.714l-4.806-6.421h-0.040v4.379c0 1.354 0.142 1.518 1.002 1.549v0.39h-2.721v-0.39c0.951-0.031 1.113-0.205 1.113-1.477v-4.164c0-1.159-0.141-1.436-1.012-1.477v-0.39h2.003l4.421 5.979h0.040v-4.041c0-1.354-0.142-1.518-1.002-1.549v-0.39h2.722v0.39c-0.951 0.031-1.113 0.205-1.113 1.477v6.133h-0.607z"></path>
<path fill="#fff" style="fill: var(--color2, #fff)" d="M40.857 17.628h-0.414c-0.091-1.162-0.554-1.483-1.724-1.483-0.998 0-1.139 0.080-1.139 0.311v5.36c0 0.861 0.161 1.192 1.301 1.232v0.381h-3.812v-0.381c1.139-0.040 1.311-0.371 1.311-1.232v-5.36c0-0.23-0.131-0.311-0.988-0.311-1.049 0-1.835 0.060-1.876 1.483h-0.373v-1.913h7.613l0.101 1.913z"></path>
<path fill="#fff" style="fill: var(--color2, #fff)" d="M46.725 19.271h0.711c1.323 0 1.974-0.461 1.974-1.573 0-1.072-0.501-1.513-1.593-1.513h-0.922c-0.11 0-0.17 0.070-0.17 0.17v2.915zM48.699 19.692l2.214 2.665c0.361 0.441 0.782 0.601 1.373 0.691v0.381h-1.933l-2.455-3.146c-0.351-0.461-0.551-0.511-1.172-0.511v2.084c0 0.992 0.17 1.192 1.383 1.192v0.381h-3.537v-0.381c0.942-0.030 1.102-0.2 1.102-1.142v-4.669c0-0.931-0.14-1.102-1.002-1.142v-0.381h3.146c1.834 0 2.895 0.721 2.895 1.933 0 1.062-0.611 1.803-2.013 2.044z"></path>
<path fill="#fff" style="fill: var(--color2, #fff)" d="M57.641 20.133h2.306l-1.122-2.956-1.183 2.956zM60.139 20.633h-2.7c-0.465 1.102-0.627 1.653-0.627 1.924 0 0.371 0.233 0.491 0.789 0.491v0.381h-2.458v-0.381c0.617-0.070 0.87-0.241 1.102-0.812l2.63-6.522h0.435l2.296 5.65c0.617 1.503 0.839 1.673 1.537 1.673v0.391h-3.297v-0.391c0.718 0 0.941-0.12 0.941-0.431 0-0.261-0.051-0.431-0.233-0.892l-0.415-1.082z"></path>
<path fill="#fff" style="fill: var(--color2, #fff)" d="M72.877 23.583h-6.547v-0.385c0.953-0.031 1.115-0.203 1.115-1.156v-4.722c0-0.942-0.142-1.115-1.013-1.155v-0.385h3.081v0.385c-0.871 0.030-1.003 0.203-1.003 1.226v4.368c0 1.135 0.405 1.368 1.804 1.368 1.551 0 2.037-0.284 2.331-1.541h0.385l-0.152 1.997z"></path>
<path fill="#fff" style="fill: var(--color2, #fff)" d="M10.909 30.351c0.157-0.124 0.235-0.303 0.235-0.538 0-0.229-0.078-0.403-0.233-0.523s-0.378-0.18-0.669-0.18h-0.802v1.427h0.802c0.288 0 0.51-0.062 0.666-0.186zM11.122 29.104c0.204 0.165 0.306 0.398 0.306 0.701 0 0.313-0.102 0.556-0.306 0.727s-0.493 0.258-0.867 0.258h-0.815v0.924h-0.298v-2.857h1.113c0.374 0 0.663 0.082 0.867 0.247z"></path>
<path fill="#fff" style="fill: var(--color2, #fff)" d="M14.745 30.701h1.359l-0.684-1.545-0.676 1.545zM16.552 31.714l-0.338-0.76h-1.579l-0.334 0.76h-0.301l1.282-2.857h0.293l1.282 2.857h-0.305z"></path>
<path fill="#fff" style="fill: var(--color2, #fff)" d="M21.103 30.537c0.282 0 0.499-0.062 0.651-0.186s0.228-0.303 0.228-0.538c0-0.229-0.076-0.403-0.228-0.523s-0.369-0.18-0.651-0.18h-0.811v1.427h0.811zM21.948 31.714l-0.638-0.932c-0.090 0.006-0.159 0.008-0.207 0.008h-0.811v0.924h-0.292v-2.857h1.103c0.369 0 0.654 0.082 0.856 0.247s0.302 0.398 0.302 0.701c0 0.237-0.059 0.435-0.178 0.592s-0.287 0.268-0.507 0.331l0.71 0.985h-0.338z"></path>
<path fill="#fff" style="fill: var(--color2, #fff)" d="M27.714 31.714h-0.346l-1.079-1.388-0.579 0.629v0.759h-0.281v-2.857h0.281v1.739l1.581-1.739h0.342l-1.145 1.249z"></path>
<path fill="#fff" style="fill: var(--color2, #fff)" d="M36.36 31.316c0.137-0.097 0.206-0.232 0.206-0.406 0-0.171-0.069-0.305-0.208-0.4s-0.332-0.143-0.579-0.143h-0.92v1.094h0.92c0.25 0 0.444-0.048 0.581-0.145zM36.258 29.986c0.114-0.088 0.171-0.214 0.171-0.378 0-0.158-0.057-0.28-0.171-0.367s-0.273-0.129-0.479-0.126h-0.92v1.004h0.92c0.206 0 0.365-0.044 0.479-0.133zM36.476 29.047c0.165 0.127 0.248 0.301 0.248 0.524 0 0.169-0.048 0.31-0.144 0.424s-0.23 0.189-0.401 0.224c0.213 0.028 0.38 0.105 0.5 0.233s0.179 0.29 0.179 0.486c0 0.245-0.093 0.435-0.279 0.571s-0.444 0.204-0.774 0.204h-1.233v-2.857h1.22c0.291 0 0.52 0.063 0.685 0.19z"></path>
<path fill="#fff" style="fill: var(--color2, #fff)" d="M40.286 28.857h1.946v0.253h-1.659v1.022h1.485v0.253h-1.485v1.075h1.713v0.254h-2z"></path>
<path fill="#fff" style="fill: var(--color2, #fff)" d="M45.888 30.701h1.359l-0.684-1.545-0.676 1.545zM47.695 31.714l-0.338-0.76h-1.579l-0.334 0.76h-0.301l1.282-2.857h0.293l1.282 2.857h-0.305z"></path>
<path fill="#fff" style="fill: var(--color2, #fff)" d="M51.523 31.474c0.164 0.173 0.391 0.259 0.681 0.259s0.517-0.086 0.679-0.259c0.162-0.173 0.243-0.414 0.243-0.725v-1.795h0.289v1.795c0 0.391-0.107 0.698-0.32 0.919s-0.511 0.332-0.891 0.332c-0.38 0-0.677-0.111-0.892-0.332s-0.323-0.528-0.323-0.919v-1.795h0.289v1.795c0 0.311 0.081 0.552 0.245 0.725z"></path>
<path fill="#fff" style="fill: var(--color2, #fff)" d="M56.571 28.857h2.286v0.257h-0.995v2.6h-0.297v-2.6h-0.994z"></path>
<path fill="#fff" style="fill: var(--color2, #fff)" d="M64 28.857l-1.132 1.839v1.018h-0.29v-1.018l-1.149-1.839h0.303l0.993 1.537 0.972-1.537z"></path>
</symbol>
<symbol id="icon-Logo" viewBox="0 0 73 32">
<title>Logo</title>
<path d="M36.013 1.135c0.101-0.184 0.103-0.701-0.262-0.902-0.602-0.331-1.527 0.149-1.734 1.012-0.24 1 0.141 1.892 1.009 2.14 0.795 0.227 1.364-0.001 1.738-0.309 0.171-0.141 0.304-0.329 0.304-0.329l0.074 0.032c0 0-0.441 1.198-1.962 1.218-1.579 0.021-2.505-1.559-1.797-2.908s2.436-1.245 3.127-0.767c0.586 0.405 0.541 0.887 0.204 1.044-0.47 0.219-0.726-0.189-0.702-0.233z"></path>
<path d="M36.837 5.31c0.797 0.271 2.066 0.155 2.642-0.97 0.69-1.35-0.213-2.932-1.754-2.911-1.485 0.020-1.915 1.22-1.915 1.22l0.072 0.033c0 0 0.13-0.188 0.297-0.329 0.365-0.308 0.92-0.536 1.697-0.309 0.847 0.248 1.219 1.142 0.985 2.142-0.202 0.865-1.105 1.345-1.693 1.014-0.356-0.201-0.354-0.718-0.255-0.902 0.023-0.044-0.233-0.486-0.692-0.267-0.176 0.084-0.29 0.368-0.218 0.731 0.161 0.814 0.876 2.211-0.123 2.794-0.243 0.142-0.21 0.498 0.051 0.654 0.402 0.241 0.892-0.090 0.918-0.788 0.025-0.682-0.010-2.109-0.010-2.109z"></path>
<path d="M6.306 15.816h0.281l0.090 2.329h-0.371c-0.291-1.175-1.193-1.904-2.376-1.904-1.624 0-2.586 1.337-2.586 3.544 0 2.167 0.932 3.382 2.616 3.382 1.273 0 2.125-0.709 2.486-2.076h0.411v2.522h-0.351l-0.231-0.8c-0.712 0.607-1.554 0.901-2.546 0.901-2.266 0-3.729-1.509-3.729-3.868 0-2.451 1.564-4.132 3.84-4.132 0.802 0 1.464 0.213 2.286 0.729l0.18-0.628z"></path>
<path d="M12.982 19.191c1.423 0 1.868-0.34 1.868-1.152h0.346v2.735h-0.346c0-0.802-0.385-1.172-1.868-1.182v2.264c0 0.872 0.395 1.142 1.641 1.142 1.393 0 1.888-0.36 2.145-1.543h0.376l-0.148 1.974h-6.137v-0.381c0.929-0.030 1.087-0.2 1.087-1.142v-4.669c0-0.932-0.138-1.102-0.988-1.142v-0.381h5.713l0.089 1.763h-0.346c-0.158-1.062-0.662-1.333-2.006-1.333h-1.255c-0.109 0-0.168 0.070-0.168 0.17v2.875z"></path>
<path d="M27.994 23.714l-4.806-6.421h-0.040v4.379c0 1.354 0.142 1.518 1.002 1.549v0.39h-2.721v-0.39c0.951-0.031 1.113-0.205 1.113-1.477v-4.164c0-1.159-0.141-1.436-1.012-1.477v-0.39h2.003l4.421 5.979h0.040v-4.041c0-1.354-0.142-1.518-1.002-1.549v-0.39h2.722v0.39c-0.951 0.031-1.113 0.205-1.113 1.477v6.133h-0.607z"></path>
<path d="M40.857 17.628h-0.414c-0.091-1.162-0.554-1.483-1.724-1.483-0.998 0-1.139 0.080-1.139 0.311v5.36c0 0.861 0.161 1.192 1.301 1.232v0.381h-3.812v-0.381c1.139-0.040 1.311-0.371 1.311-1.232v-5.36c0-0.23-0.131-0.311-0.988-0.311-1.049 0-1.835 0.060-1.876 1.483h-0.373v-1.913h7.613l0.101 1.913z"></path>
<path d="M46.725 19.271h0.711c1.323 0 1.974-0.461 1.974-1.573 0-1.072-0.501-1.513-1.593-1.513h-0.922c-0.11 0-0.17 0.070-0.17 0.17v2.915zM48.699 19.692l2.214 2.665c0.361 0.441 0.782 0.601 1.373 0.691v0.381h-1.933l-2.455-3.146c-0.351-0.461-0.551-0.511-1.172-0.511v2.084c0 0.992 0.17 1.192 1.383 1.192v0.381h-3.537v-0.381c0.942-0.030 1.102-0.2 1.102-1.142v-4.669c0-0.931-0.14-1.102-1.002-1.142v-0.381h3.146c1.834 0 2.895 0.721 2.895 1.933 0 1.062-0.611 1.803-2.013 2.044z"></path>
<path d="M57.641 20.133h2.306l-1.122-2.956-1.183 2.956zM60.139 20.633h-2.7c-0.465 1.102-0.627 1.653-0.627 1.924 0 0.371 0.233 0.491 0.789 0.491v0.381h-2.458v-0.381c0.617-0.070 0.87-0.241 1.102-0.812l2.63-6.522h0.435l2.296 5.65c0.617 1.503 0.839 1.673 1.537 1.673v0.391h-3.297v-0.391c0.718 0 0.941-0.12 0.941-0.431 0-0.261-0.051-0.431-0.233-0.892l-0.415-1.082z"></path>
<path d="M72.877 23.583h-6.547v-0.385c0.953-0.031 1.115-0.203 1.115-1.156v-4.722c0-0.942-0.142-1.115-1.013-1.155v-0.385h3.081v0.385c-0.871 0.030-1.003 0.203-1.003 1.226v4.368c0 1.135 0.405 1.368 1.804 1.368 1.551 0 2.037-0.284 2.331-1.541h0.385l-0.152 1.997z"></path>
<path d="M10.909 30.351c0.157-0.124 0.235-0.303 0.235-0.538 0-0.229-0.078-0.403-0.233-0.523s-0.378-0.18-0.669-0.18h-0.802v1.427h0.802c0.288 0 0.51-0.062 0.666-0.186zM11.122 29.104c0.204 0.165 0.306 0.398 0.306 0.701 0 0.313-0.102 0.556-0.306 0.727s-0.493 0.258-0.867 0.258h-0.815v0.924h-0.298v-2.857h1.113c0.374 0 0.663 0.082 0.867 0.247z"></path>
<path d="M14.745 30.701h1.359l-0.684-1.545-0.676 1.545zM16.552 31.714l-0.338-0.76h-1.579l-0.334 0.76h-0.301l1.282-2.857h0.293l1.282 2.857h-0.305z"></path>
<path d="M21.103 30.537c0.282 0 0.499-0.062 0.651-0.186s0.228-0.303 0.228-0.538c0-0.229-0.076-0.403-0.228-0.523s-0.369-0.18-0.651-0.18h-0.811v1.427h0.811zM21.948 31.714l-0.638-0.932c-0.090 0.006-0.159 0.008-0.207 0.008h-0.811v0.924h-0.292v-2.857h1.103c0.369 0 0.654 0.082 0.856 0.247s0.302 0.398 0.302 0.701c0 0.237-0.059 0.435-0.178 0.592s-0.287 0.268-0.507 0.331l0.71 0.985h-0.338z"></path>
<path d="M27.714 31.714h-0.346l-1.079-1.388-0.579 0.629v0.759h-0.281v-2.857h0.281v1.739l1.581-1.739h0.342l-1.145 1.249z"></path>
<path d="M36.36 31.316c0.137-0.097 0.206-0.232 0.206-0.406 0-0.171-0.069-0.305-0.208-0.4s-0.332-0.143-0.579-0.143h-0.92v1.094h0.92c0.25 0 0.444-0.048 0.581-0.145zM36.258 29.986c0.114-0.088 0.171-0.214 0.171-0.378 0-0.158-0.057-0.28-0.171-0.367s-0.273-0.129-0.479-0.126h-0.92v1.004h0.92c0.206 0 0.365-0.044 0.479-0.133zM36.476 29.047c0.165 0.127 0.248 0.301 0.248 0.524 0 0.169-0.048 0.31-0.144 0.424s-0.23 0.189-0.401 0.224c0.213 0.028 0.38 0.105 0.5 0.233s0.179 0.29 0.179 0.486c0 0.245-0.093 0.435-0.279 0.571s-0.444 0.204-0.774 0.204h-1.233v-2.857h1.22c0.291 0 0.52 0.063 0.685 0.19z"></path>
<path d="M40.286 28.857h1.946v0.253h-1.659v1.022h1.485v0.253h-1.485v1.075h1.713v0.254h-2z"></path>
<path d="M45.888 30.701h1.359l-0.684-1.545-0.676 1.545zM47.695 31.714l-0.338-0.76h-1.579l-0.334 0.76h-0.301l1.282-2.857h0.293l1.282 2.857h-0.305z"></path>
<path d="M51.523 31.474c0.164 0.173 0.391 0.259 0.681 0.259s0.517-0.086 0.679-0.259c0.162-0.173 0.243-0.414 0.243-0.725v-1.795h0.289v1.795c0 0.391-0.107 0.698-0.32 0.919s-0.511 0.332-0.891 0.332c-0.38 0-0.677-0.111-0.892-0.332s-0.323-0.528-0.323-0.919v-1.795h0.289v1.795c0 0.311 0.081 0.552 0.245 0.725z"></path>
<path d="M56.571 28.857h2.286v0.257h-0.995v2.6h-0.297v-2.6h-0.994z"></path>
<path d="M64 28.857l-1.132 1.839v1.018h-0.29v-1.018l-1.149-1.839h0.303l0.993 1.537 0.972-1.537z"></path>
</symbol>

<!-- Icons -->
<symbol id="icon-smartphone" viewBox="0 0 32 32">
<title>smartphone</title>
<path fill="#e2a187" style="fill: var(--color1, #e2a187)" d="M22.863 0h-13.726c-1.323 0-2.4 1.054-2.4 2.349v27.301c0 1.295 1.077 2.35 2.4 2.35h13.725c1.324 0 2.401-1.054 2.401-2.349v-27.301c0-1.295-1.077-2.349-2.4-2.349zM7.827 4.267h16.347v20.267h-16.347v-20.267zM9.137 1.067h13.725c0.723 0 1.311 0.575 1.311 1.283v0.851h-16.347v-0.851c0-0.707 0.588-1.283 1.31-1.283zM22.863 30.933h-13.726c-0.723 0-1.31-0.575-1.31-1.283v-4.051h16.347v4.051c0 0.707-0.588 1.283-1.31 1.283z"></path>
<path fill="#e2a187" style="fill: var(--color1, #e2a187)" d="M16 26.947c-1.393 0-2.526 1.133-2.526 2.526s1.133 2.526 2.526 2.526c1.393 0 2.526-1.133 2.526-2.526s-1.133-2.526-2.526-2.526zM16 30.737c-0.697 0-1.263-0.567-1.263-1.263s0.567-1.263 1.263-1.263c0.697 0 1.263 0.567 1.263 1.263s-0.567 1.263-1.263 1.263z"></path>
<path fill="#e2a187" style="fill: var(--color1, #e2a187)" d="M14.035 3.368h2.246c0.31 0 0.561-0.376 0.561-0.842s-0.251-0.842-0.561-0.842h-2.246c-0.31 0-0.561 0.376-0.561 0.842s0.251 0.842 0.561 0.842z"></path>
<path fill="#e2a187" style="fill: var(--color1, #e2a187)" d="M17.404 3.368h0.561c0.31 0 0.561-0.376 0.561-0.842s-0.251-0.842-0.561-0.842h-0.561c-0.31 0-0.561 0.376-0.561 0.842s0.251 0.842 0.561 0.842z"></path>
<path fill="#e2a187" style="fill: var(--color1, #e2a187)" d="M29.76 1.83c-0.259-0.194-0.676-0.194-0.935 0s-0.259 0.508 0 0.702c2.47 1.854 2.47 4.872 0 6.726-0.259 0.194-0.259 0.508 0 0.702 0.129 0.097 0.298 0.145 0.467 0.145s0.339-0.049 0.467-0.145c2.986-2.241 2.986-5.889 0-8.13z"></path>
<path fill="#e2a187" style="fill: var(--color1, #e2a187)" d="M27.63 3.524c-0.156-0.208-0.409-0.208-0.566 0s-0.156 0.543 0 0.751c0.495 0.657 0.767 1.531 0.767 2.462s-0.272 1.805-0.767 2.462c-0.156 0.208-0.156 0.543 0 0.751 0.078 0.104 0.18 0.156 0.283 0.156s0.205-0.052 0.283-0.156c0.646-0.857 1.001-1.998 1.001-3.213s-0.355-2.356-1.001-3.213z"></path>
<path fill="#e2a187" style="fill: var(--color1, #e2a187)" d="M3.175 2.532c0.259-0.194 0.259-0.508 0-0.702s-0.676-0.194-0.935 0c-2.986 2.241-2.986 5.889 0 8.13 0.129 0.097 0.298 0.145 0.467 0.145s0.339-0.049 0.467-0.145c0.259-0.194 0.259-0.508 0-0.702-2.471-1.854-2.471-4.872 0-6.726z"></path>
<path fill="#e2a187" style="fill: var(--color1, #e2a187)" d="M4.935 3.524c-0.156-0.208-0.409-0.208-0.566 0-0.646 0.857-1.001 1.998-1.001 3.213s0.356 2.356 1.001 3.213c0.078 0.104 0.18 0.156 0.283 0.156s0.205-0.052 0.283-0.156c0.156-0.208 0.156-0.543 0-0.751-0.495-0.657-0.767-1.531-0.767-2.463s0.272-1.805 0.767-2.462c0.156-0.207 0.156-0.543 0-0.751z"></path>
</symbol>
<symbol id="icon-Close-X" viewBox="0 0 32 32">
<title>Close-X</title>
<path d="M32 1.855l-1.855-1.855-14.145 14.146-14.145-14.146-1.855 1.855 14.145 14.146-14.145 14.145 1.855 1.855 14.145-14.145 14.145 14.145 1.855-1.855-14.146-14.145z"></path>
</symbol>
<symbol id="icon-pen" viewBox="0 0 32 32">
<title>pen</title>
<path fill="#e2a187" style="fill: var(--color1, #e2a187)" d="M29.906 5.797l-3.702-3.702c-0.207-0.207-0.541-0.207-0.748 0l-21.686 21.686c-0.049 0.049-0.088 0.107-0.114 0.17l-2.645 6.347c-0.083 0.198-0.038 0.426 0.114 0.578 0.101 0.101 0.236 0.155 0.374 0.155 0.069 0 0.138-0.013 0.204-0.041l6.347-2.645c0.063-0.026 0.122-0.065 0.17-0.114l21.686-21.686c0.207-0.207 0.207-0.541 0-0.748zM7.546 27.409l-5.065 2.11 2.11-5.064 21.238-21.238 2.955 2.955-21.238 21.238z"></path>
<path fill="#e2a187" style="fill: var(--color1, #e2a187)" d="M1.75 30.25c-0.253-0.253-0.661-0.253-0.914 0l-0.646 0.646c-0.253 0.253-0.253 0.661 0 0.914 0.126 0.126 0.292 0.189 0.457 0.189s0.331-0.063 0.457-0.189l0.646-0.646c0.253-0.253 0.253-0.661 0-0.914z"></path>
<path fill="#e2a187" style="fill: var(--color1, #e2a187)" d="M28.94 9.424l-5.134-5.387c-0.201-0.211-0.525-0.211-0.726 0s-0.201 0.551 0 0.762l4.771 5.006-7.337 7.7c-0.201 0.211-0.201 0.551 0 0.762 0.1 0.105 0.232 0.158 0.363 0.158s0.263-0.053 0.363-0.158l7.7-8.081c0.201-0.211 0.201-0.551 0-0.762z"></path>
<path fill="#e2a187" style="fill: var(--color1, #e2a187)" d="M3.276 24.326l1.331-1.331 3.428 3.428-1.331 1.331-3.428-3.428z"></path>
<path fill="#e2a187" style="fill: var(--color1, #e2a187)" d="M31.845 1.742l-1.587-1.587c-0.207-0.207-0.541-0.207-0.748 0l-3.173 3.174c-0.207 0.207-0.207 0.541 0 0.748s0.541 0.207 0.748 0l2.799-2.8 0.839 0.839-2.799 2.8c-0.207 0.207-0.207 0.541 0 0.748 0.103 0.103 0.239 0.155 0.374 0.155s0.271-0.052 0.374-0.155l3.173-3.174c0.207-0.207 0.207-0.541 0-0.748z"></path>
<path fill="#e2a187" style="fill: var(--color1, #e2a187)" d="M11.034 17.538l1.331-1.331 3.428 3.428-1.331 1.331-3.428-3.428z"></path>
</symbol>
<symbol id="icon-cp-location" viewBox="0 0 32 32">
<title>cp-location</title>
<path fill="#e2a187" style="fill: var(--color1, #e2a187)" d="M15.848 6.095c-2.52 0-4.571 2.051-4.571 4.571s2.051 4.571 4.571 4.571c2.52 0 4.571-2.051 4.571-4.571s-2.051-4.571-4.571-4.571zM15.848 13.932c-1.8 0-3.265-1.465-3.265-3.265s1.465-3.265 3.265-3.265c1.8 0 3.265 1.465 3.265 3.265s-1.465 3.265-3.265 3.265z"></path>
<path fill="#e2a187" style="fill: var(--color1, #e2a187)" d="M24.079 3.197c-2.158-2.061-5.028-3.197-8.080-3.197s-5.922 1.135-8.080 3.197c-3.994 3.814-4.49 10.99-1.075 15.338l9.155 12.627 9.141-12.609c3.429-4.366 2.933-11.542-1.061-15.356zM24.173 17.887l-8.175 11.275-8.188-11.293c-3.098-3.945-2.654-10.426 0.951-13.868 1.933-1.846 4.503-2.863 7.237-2.863s5.304 1.017 7.237 2.863c3.605 3.442 4.049 9.923 0.937 13.886z"></path>
</symbol>
<symbol id="icon-play-button" viewBox="0 0 32 32">
<title>play-button</title>
<path fill="#fff" style="fill: var(--color2, #fff)" d="M24.055 15.573l-11.126-7.759c-0.155-0.108-0.356-0.12-0.521-0.030s-0.269 0.265-0.269 0.457v15.518c0 0.192 0.104 0.368 0.27 0.457 0.074 0.040 0.155 0.060 0.236 0.060 0.1 0 0.199-0.031 0.285-0.090l11.126-7.759c0.138-0.096 0.221-0.256 0.221-0.427s-0.083-0.331-0.221-0.427zM13.241 22.51v-13.241l9.931 6.621-9.931 6.621z"></path>
<path fill="#fff" style="fill: var(--color2, #fff)" d="M16 0c-8.822 0-16 7.178-16 16s7.178 16 16 16c8.822 0 16-7.178 16-16s-7.178-16-16-16zM16 30.933c-8.234 0-14.933-6.699-14.933-14.933s6.699-14.933 14.933-14.933c8.234 0 14.933 6.699 14.933 14.933s-6.699 14.933-14.933 14.933z"></path>
</symbol>
<symbol id="icon-question" viewBox="0 0 32 32">
<title>question</title>
<path fill="#e2a187" style="fill: var(--color1, #e2a187)" d="M24.783 2.618c-2.607-1.711-5.657-2.621-8.775-2.618-8.831 0.009-15.991 7.166-16.008 16.003-0.003 3.111 0.918 6.152 2.647 8.738l-2.585 6.197c-0.159 0.397 0.034 0.848 0.431 1.007 0.185 0.074 0.391 0.074 0.575 0l6.192-2.587c7.379 4.842 17.283 2.781 22.121-4.602s2.779-17.295-4.599-22.137zM16.023 30.457c-0.005 0-0.010 0-0.015 0v0.015h-0c-2.941-0.023-5.807-0.936-8.22-2.618-0.127-0.089-0.278-0.137-0.433-0.139-0.097-0.019-0.197-0.019-0.294 0l-4.846 2.076 2.028-4.834c0.103-0.245 0.074-0.525-0.077-0.744-1.704-2.398-2.619-5.268-2.616-8.211-0.009-7.991 6.458-14.476 14.444-14.485s14.466 6.463 14.475 14.454-6.458 14.476-14.444 14.485z"></path>
<path fill="#e2a187" style="fill: var(--color1, #e2a187)" d="M20.755 12.071c-0.328-2.374-2.398-4.125-4.811-4.070-2.606-0.008-4.728 2.078-4.744 4.666 0 0.414 0.338 0.75 0.755 0.75s0.755-0.336 0.755-0.75c0.033-1.773 1.508-3.183 3.293-3.15s3.206 1.497 3.172 3.27c-0.033 1.749-1.47 3.151-3.232 3.151-0.417 0-0.755 0.336-0.755 0.75v3.361c0 0.414 0.338 0.75 0.755 0.75s0.756-0.336 0.756-0.75v-2.671c2.596-0.354 4.412-2.73 4.055-5.308z"></path>
<path fill="#e2a187" style="fill: var(--color1, #e2a187)" d="M17.2 23.2c0 1.105-0.895 2-2 2s-2-0.895-2-2c0-1.105 0.895-2 2-2s2 0.895 2 2z"></path>
</symbol>
<symbol id="icon-heart" viewBox="0 0 31 32">
<title>Heart</title>
<path class="path1" d="M27.172 15.602c-0.181 0.36-0.368 0.718-0.559 1.073 1.519-3.463 2.835-8.070 1.271-11.742-0.55-1.291-1.529-2.296-2.944-2.556-0.295-0.054-0.591-0.071-0.887-0.063 0.575-0.164 1.174-0.218 1.791-0.129 2.56 0.372 3.938 2.611 3.936 5.026-0.002 2.92-1.32 5.836-2.607 8.391zM11.896 25.107c-0.309-0.364-0.62-0.723-0.933-1.082 0.472 0.454 0.957 0.888 1.457 1.294 1.070 0.87 2.17 1.703 3.236 2.578 0.506 0.415 1.004 0.84 1.479 1.291 0.121 0.114 0.236 0.234 0.349 0.356-0.14 0.198-0.28 0.396-0.419 0.594-0.197 0.28 0.006 0.588 0.274 0.679-0.019 0.017-0.038 0.035-0.057 0.052-1.95-1.773-3.683-3.754-5.387-5.762zM0.926 7.926c0.033-1.060 0.261-2.168 0.684-3.189-0.348 1.721 0.068 3.674 0.534 5.3 0.627 2.189 1.671 4.26 2.832 6.208 0.915 1.535 1.949 3.086 3.096 4.552-0.345-0.375-0.69-0.748-1.038-1.122-3.021-3.24-6.254-7.053-6.109-11.749zM9.843 2.13c3.076 2.178 4.199 5.982 4.18 9.658-1.249-3.035-2.939-5.945-5.372-8.052-1.464-1.267-3.737-2.248-5.34-1.514 0.199-0.184 0.408-0.356 0.632-0.51 1.874-1.292 4.147-0.822 5.899 0.418zM18.059 28.735c-0.282-0.278-0.579-0.514-0.736-0.655-1.196-1.070-2.483-2.037-3.741-3.032-3.012-2.384-5.459-5.551-7.49-8.787-1.27-2.024-2.346-4.185-3.039-6.476-0.554-1.833-1.091-4.396-0.043-6.149 0.892-1.492 2.973-0.577 4.069 0.102 1.859 1.153 3.219 3.102 4.317 4.945 1.010 1.695 1.809 3.512 2.473 5.373-0.045 0.346-0.099 0.687-0.162 1.022-0.109 0.402-0.202 0.808-0.274 1.216-0.103 0.589 0.758 0.849 0.909 0.251 0.052-0.206 0.1-0.412 0.146-0.62 0.025 0.081 0.052 0.162 0.076 0.243 0.164 0.54 0.866 0.384 0.926-0.125 0.182-1.544 0.316-3.128 0.62-4.647 0.63-1.28 1.36-2.508 2.108-3.656 0.702-1.077 1.647-2.403 2.774-3.495 1.086-0.607 2.3-1.016 3.461-0.978 1.555 0.051 2.42 1.415 2.811 2.759 1.129 3.879-0.516 8.312-2.204 11.757-1.91 3.898-4.491 7.423-7.005 10.954zM28.887 2.633c-1.27-1.115-2.989-1.639-4.648-1.312-1.427 0.281-2.686 1.165-3.759 2.183-0.32 0.184-0.628 0.377-0.92 0.567-2.636 1.722-3.757 4.3-4.343 7.118-0.081 0.17-0.162 0.34-0.241 0.512 0.006-2.739-0.629-5.449-2.189-7.782-2.115-3.163-6.407-5.442-9.787-2.68-3.297 2.694-3.677 7.742-2.107 11.451 1.713 4.046 5.021 7.116 7.947 10.286 2.726 2.954 5.085 6.189 8.111 8.865 0.196 0.173 0.472 0.186 0.667 0 0.517-0.493 1.094-0.939 1.394-1.604 0.118-0.262-0.006-0.507-0.194-0.633 3.299-3.703 6.157-7.974 8.516-12.287 1.442-2.637 2.768-5.488 3.244-8.479 0.353-2.221 0.090-4.642-1.691-6.205z"></path>
</symbol>
<symbol id="icon-star" viewBox="0 0 260 245">
<title>Star</title>
<path class="path1" d="m55,237 74-228 74,228L9,96h240"></path>
</symbol>
<symbol id="icon-man" viewBox="0 0 280 280">
<title>Gender Man</title>
<g class="path1" transform="translate(-25, -25)">
<path d="m 332.7,69.2 -14.5,0 0,-20.06 -26.6,26.55 c 9.5,11.96 14.3,25.61 14.3,40.81 0,18 -6.4,33.3 -19.2,46.1 -12.8,12.8 -28.2,19.2 -46.1,19.2 -17.9,0 -33.3,-6.4 -46.1,-19.2 -12.8,-12.8 -19.2,-28.1 -19.2,-46.1 0,-17.83 6.4,-33.16 19.2,-45.94 12.8,-12.79 28.2,-19.18 46.1,-19.18 15.3,0 28.9,4.72 40.8,14.16 l 26.6,-26.56 -20.1,0 0,-14.51 44.8,0 z m -92.1,98.2 c 13.9,0 25.9,-5 35.8,-14.9 10,-10 15,-22 15,-36 0,-14 -5,-25.94 -14.9,-35.85 -9.9,-9.92 -21.9,-14.87 -35.9,-14.87 -13.9,0 -25.9,4.97 -35.8,14.93 -10,9.95 -14.9,21.89 -14.9,35.79 0,14 4.9,26 14.9,36 9.9,9.9 21.9,14.9 35.8,14.9 z"></path>
</g>
</symbol>
<symbol id="icon-woman" viewBox="0 0 256 256">
<title>Gender Woman</title>
<path class="path1" d="M 64.04,135.6 C 46.89,133.5 32.94,126.2 22.2,113.8 11.46,101.3 6.094,86.98 6.094,70.85 6.094,52.91 12.47,37.55 25.21,24.76 37.96,11.98 53.34,5.584 71.36,5.584 c 17.86,0 33.24,6.416 46.04,19.236 12.8,12.83 19.2,28.17 19.2,46.03 0,16.13 -5.4,30.45 -16.1,42.95 -10.8,12.4 -24.79,19.7 -41.94,21.8 l 0,24.5 24.24,0 0,14.5 -24.24,0 0,24.2 -14.52,0 0,-24.2 -24.07,0 0,-14.5 24.07,0 z m 7.32,-14 c 13.93,0 25.87,-5 35.84,-14.9 9.9,-9.88 14.9,-21.84 14.9,-35.85 0,-14 -4.9,-25.96 -14.9,-35.88 C 97.33,25.06 85.37,20.1 71.36,20.1 c -14,0 -25.96,4.98 -35.88,14.93 -9.91,9.95 -14.87,21.89 -14.87,35.82 0,14.01 4.96,25.97 14.87,35.85 9.92,9.9 21.88,14.9 35.88,14.9 z"></path>
</symbol>
</defs>
</svg>